<svg width="70" height="70" viewBox="0 0 70 70" fill="none" xmlns="http://www.w3.org/2000/svg">
<g clip-path="url(#clip0_133_86)">
<path d="M26.6328 1.77735C13.959 2.3379 4.64844 3.8418 1.57227 5.81056C0.765625 6.33009 0.341797 6.76759 0.150391 7.28712C0.0410156 7.54689 0 11.334 0 19.0859V30.502L0.341797 30.8301C0.765625 31.2676 1.28516 31.2676 1.70898 30.8301L2.05078 30.502V20.4941C2.05078 11.0195 2.06445 10.5 2.29688 10.5957C3.81445 11.2656 7.06836 12.127 10.0215 12.6328L10.5273 12.7285V30.3652V47.9883L10.2266 47.9336C10.0488 47.8926 9.39258 47.7695 8.75 47.6465C6.01563 47.127 3.67773 46.3887 2.55664 45.7051L2.05078 45.3906V40.1406C2.05078 35.041 2.03711 34.8906 1.76367 34.5352C1.36719 34.043 0.669922 34.043 0.273438 34.5488C0 34.9043 -0.0136719 35 0.0273438 40.4824C0.0683594 45.8828 0.0820313 46.0606 0.355469 46.4434C1.36719 47.8106 4.375 48.9453 9.29688 49.8203C11.6621 50.2442 11.7715 50.2442 12.1816 49.916C12.5098 49.6563 12.5098 49.6426 12.5781 45.9785L12.6465 42.3145L13.3984 42.2188C14.5742 42.0684 19.4961 41.5899 20.7949 41.4942L21.957 41.3984L22.4766 42.2734C23.3652 43.7774 25.2793 46.0195 27.0977 47.6465L27.7813 48.2617L27.5488 50.0664C27.4395 51.0645 27.2891 51.9258 27.2344 51.9668C27.1797 52.0215 26.6738 52.1992 26.0859 52.3633L25.0469 52.6641L24.4863 52.2266C23.5703 51.4883 22.9824 51.5156 19.9609 52.4317C18.5664 52.8555 17.0488 53.3887 16.584 53.6074C14.1641 54.7559 12.1816 57.0117 11.293 59.6094C11.1016 60.1699 10.6641 62.166 10.3223 64.0391C9.77539 67.1152 9.73438 67.4707 9.91211 67.8125C10.377 68.7012 11.6074 68.4551 11.8125 67.4434C11.8535 67.2383 12.127 65.666 12.4414 63.9707C12.7422 62.2754 13.0703 60.6211 13.1934 60.3067C13.8633 58.3926 15.4492 56.5195 17.1582 55.6172C17.6914 55.3438 19.1543 54.8106 20.4395 54.4277C22.709 53.7442 23.2422 53.6348 23.2422 53.8262C23.2422 54.25 23.6797 57.7227 23.8574 58.7207C24.5137 62.4942 26.0586 67.2109 26.9199 68.0723C27.5078 68.6602 28.5742 68.2363 28.5742 67.416C28.5742 67.2109 28.3555 66.5547 28.082 65.9668C27.0293 63.6836 26.2227 60.7442 25.7031 57.2305C25.3066 54.6055 25.2793 54.7422 26.2227 54.4688C26.6465 54.3457 27.043 54.2227 27.0977 54.1953C27.1387 54.1543 27.2891 54.4961 27.4121 54.9199C27.7266 56.041 28.1641 56.7246 29.1211 57.5996C30.4473 58.8301 32.4023 59.6094 34.207 59.6094C35.1641 59.6094 35.5469 59.3223 35.5469 58.6113C35.5469 57.9414 35.2051 57.709 34.0293 57.5586C31.2949 57.2168 29.5176 55.8359 29.3125 53.8945C29.2441 53.3203 29.5859 49.8067 29.709 49.6699C29.7363 49.6426 30.2148 49.834 30.7754 50.1074C33.6328 51.4473 36.3672 51.4473 39.2246 50.1074C39.7852 49.834 40.2637 49.6426 40.291 49.6699C40.3184 49.7109 40.4414 50.5176 40.5508 51.4883C40.9199 54.5918 40.7559 55.0703 38.6367 56.834C38.1445 57.2442 38.1445 57.9824 38.6367 58.3652C38.8418 58.5293 39.1016 58.6524 39.2246 58.6524C39.8262 58.6524 41.6582 57.0527 42.1504 56.1094C42.2598 55.8906 42.4648 55.3574 42.5879 54.9199C42.7656 54.3047 42.8613 54.1406 43.0254 54.1953C43.1484 54.25 43.5176 54.3457 43.8457 54.4414C44.1875 54.5234 44.4883 54.6738 44.5293 54.7695C44.625 55.0293 44.2148 57.9551 43.8047 60.0195C43.3945 62.002 42.6289 64.4356 41.918 65.9668C41.6445 66.5547 41.4258 67.2109 41.4258 67.416C41.4258 68.2227 42.4922 68.6602 43.0664 68.0859C43.9277 67.2246 45.4863 62.4942 46.1426 58.7207C46.3203 57.7227 46.7578 54.25 46.7578 53.8262C46.7578 53.6211 47.3047 53.7442 49.5742 54.4277C50.8457 54.8106 52.3086 55.3438 52.8418 55.6172C54.5508 56.5195 56.1367 58.3926 56.8066 60.3067C56.9297 60.6211 57.2578 62.2754 57.5586 63.9707C57.8731 65.666 58.1465 67.2383 58.1875 67.4434C58.3926 68.4551 59.6231 68.7012 60.0879 67.8125C60.2656 67.4707 60.2246 67.1152 59.6777 64.0391C59.0352 60.5117 58.6387 59.0899 57.9414 57.8731C56.9707 56.1504 55.2617 54.5234 53.5391 53.6758C53.0059 53.416 51.4336 52.8555 50.0391 52.4317C47.0313 51.5156 46.4297 51.4883 45.5273 52.2129L44.9805 52.6504L43.8184 52.2949C43.1758 52.1035 42.6563 51.9121 42.6563 51.8711C42.6563 51.8301 42.5606 51.0098 42.4375 50.0527L42.2324 48.3027L43.8184 46.7442C45.3906 45.2129 47.1816 43.0254 47.7148 41.9727C47.9199 41.5762 48.084 41.4258 48.3027 41.4258C49.2598 41.4258 56.4648 42.1504 57.2578 42.3145L57.5586 42.3828V45.9512V49.5059L57.9004 49.834C58.3106 50.2578 58.2969 50.2578 60.7031 49.8203C65.6524 48.9453 68.6465 47.8106 69.6172 46.457L69.9316 46.0059L69.9727 26.9336C70 13.7266 69.9727 7.71095 69.8633 7.35548C69.5899 6.38478 68.1543 5.42775 65.8027 4.66212C64.1758 4.12891 60.6348 3.39063 60.2109 3.50001C59.8008 3.60938 59.418 4.2793 59.5273 4.73048C59.6504 5.22267 60.0742 5.41407 62.002 5.81056C64.2578 6.2754 66.4727 6.98634 67.3066 7.51954C67.6621 7.73829 67.9492 7.95704 67.9492 7.99806C67.9492 8.13478 66.9102 8.709 66.0352 9.05079C64.8594 9.51564 62.3027 10.1582 60.0195 10.541C58.5566 10.7871 58.1055 10.9238 57.8731 11.1699L57.5586 11.4707V25.8809V40.2774L56.2324 40.1133C55.4941 40.0176 53.7852 39.8399 52.4316 39.7168C51.0781 39.5801 49.957 39.4707 49.9434 39.457C49.9434 39.457 50.0254 39.1152 50.1484 38.7324L50.3809 38.0078H51.5566C52.8965 38.0078 53.4981 37.8438 54.0449 37.3379C54.7695 36.6817 54.8652 36.3125 54.9336 34.2207C55.043 30.6934 54.8242 29.75 53.7441 29.0254C53.375 28.7793 53.0879 28.7109 52.3906 28.7109C51.6113 28.7109 51.5293 28.6836 51.6113 28.4649C52.2266 26.8516 52.3496 23.0508 51.8438 21.1641C51.2285 18.8809 50.4219 17.2949 49.8066 17.1445C49.3418 17.0215 48.7813 17.3223 48.6172 17.8008C48.5078 18.1016 48.5898 18.375 49 19.2774C49.793 21.0274 50.0664 22.2305 50.0938 24.1309C50.0938 25.0332 50.0527 26.0723 49.9981 26.4277L49.8887 27.0977L49.3828 26.5508C49.1094 26.25 48.6035 25.8672 48.2617 25.6895C47.6465 25.3613 47.6191 25.3613 42.1777 25.293L36.709 25.2246L35.752 24.8008C34.2617 24.1582 33.1543 23.3379 31.418 21.5879C30.543 20.6992 29.668 19.9336 29.4629 19.8789C28.916 19.7422 28.2461 19.9336 27.8633 20.3438C27.6719 20.5488 27.3301 21.1504 27.0977 21.6973C26.6055 22.8867 25.6348 24.2813 24.9238 24.8281C24.5 25.1563 24.2266 25.2383 23.3652 25.3066C22.1895 25.416 21.4375 25.7305 20.7129 26.4688C20.4395 26.7422 20.1934 26.9336 20.166 26.9199C20.0566 26.7832 19.8242 24.7871 19.8242 23.8984C19.8242 21.6836 20.8223 19.1543 22.3262 17.541C23.8711 15.9004 25.5801 15.4219 27.4531 16.1191C28.4375 16.4883 28.3555 16.5156 29.8047 15.2578C31.3633 13.8906 33.332 12.9199 35.4102 12.4961C36.9414 12.1953 39.6895 12.291 41.1523 12.7149C42.5059 13.0977 44.1465 13.9043 45.3086 14.752C45.8281 15.1348 46.334 15.4492 46.4297 15.4492C47.0859 15.4492 47.6465 14.7656 47.4961 14.1367C47.3184 13.4395 44.5566 11.7031 42.5195 11.0059C39.3613 9.92579 35.6836 10.0078 32.6074 11.1973C31.2813 11.7031 29.7227 12.6055 28.7109 13.4668C28.1094 13.959 27.8906 14.0684 27.6172 14C25.0879 13.3711 22.873 14.041 20.9453 16.0098C19.6465 17.3359 18.7578 18.9356 18.1563 21.0137C17.7188 22.5313 17.7188 25.6348 18.1563 27.3848C18.3203 28.0547 18.457 28.6152 18.457 28.6563C18.457 28.6836 18.0605 28.7109 17.582 28.7109C16.9121 28.7109 16.625 28.7793 16.2559 29.0254C15.1758 29.75 14.957 30.6934 15.0664 34.2207C15.1348 36.3125 15.2305 36.6817 15.9551 37.3379C16.502 37.8438 17.1035 38.0078 18.4434 38.0078H19.6328L19.7969 38.582C19.8926 38.9102 20.002 39.2383 20.043 39.3203C20.084 39.4297 19.7422 39.5117 18.9766 39.5801C18.3477 39.6211 16.7617 39.7852 15.4492 39.9356C14.1367 40.0723 12.9473 40.1953 12.8242 40.1953C12.5918 40.1953 12.5781 39.416 12.5781 25.8399V11.4707L12.2637 11.1563C12.0449 10.9512 11.7031 10.8145 11.2109 10.7461C9.9668 10.5957 6.54883 9.87111 5.31836 9.50196C3.95117 9.10548 3.25391 8.8047 2.55664 8.35353C2.14648 8.09376 2.07813 7.99806 2.21484 7.834C2.70703 7.24611 5.33203 6.34376 8.3125 5.7422C19.25 3.5547 38.2266 3.04884 53.2246 4.5254L56.082 4.81251L56.4102 4.49806C56.8613 4.07423 56.8203 3.34962 56.3281 2.99415C55.9316 2.69337 52.5957 2.32423 47.2363 1.96876C43.4219 1.72266 30.5703 1.59962 26.6328 1.77735ZM67.9492 27.959V45.3906L67.4434 45.7051C66.3223 46.4024 63.5879 47.2363 60.6758 47.7559L59.6094 47.9609V30.3379V12.7149L59.9238 12.6602C60.0879 12.6191 61.0586 12.4277 62.0703 12.2227C64.0527 11.8399 66.1445 11.252 67.1289 10.8145C67.4707 10.6641 67.7852 10.541 67.8535 10.541C67.9082 10.5274 67.9492 18.375 67.9492 27.959ZM31.9648 24.9238L32.4297 25.293H29.9551C28.5879 25.293 27.4805 25.252 27.4805 25.2109C27.4805 25.1699 27.6309 24.9375 27.8086 24.7051C27.9863 24.459 28.3555 23.8164 28.6426 23.2559L29.1484 22.2441L30.3242 23.4063C30.9805 24.0352 31.7188 24.7324 31.9648 24.9238ZM47.7969 27.918L48.2617 28.4375V33.2227C48.2617 38.4863 48.2481 38.6231 47.4414 39.0332C47.1133 39.1973 46.3887 39.2383 43.3672 39.2383C39.1152 39.2383 39.1836 39.2656 38.2402 37.8164C36.6133 35.3555 33.3457 35.4102 31.7188 37.9258C30.8438 39.2656 30.9668 39.2383 26.6602 39.2383C23.6113 39.2383 22.8867 39.1973 22.5586 39.0332C21.752 38.6231 21.7383 38.4863 21.7383 33.2363V28.4649L22.1074 28.0274C22.2988 27.7813 22.5996 27.5352 22.75 27.4805C22.9141 27.4121 28.5059 27.3711 35.1777 27.3848L47.332 27.4121L47.7969 27.918ZM19.6602 33.3184L19.6191 35.8887H18.457H17.2949L17.2539 33.3184L17.2266 30.7617H18.457H19.6875L19.6602 33.3184ZM52.7461 33.3184L52.7051 35.8887H51.543H50.3809L50.3398 33.3184L50.3125 30.7617H51.543H52.7734L52.7461 33.3184ZM35.752 38.2813C36.1758 38.4863 36.4219 38.7461 36.6953 39.2246C37.0918 39.9629 37.6113 40.4551 38.4727 40.9199C38.9922 41.207 39.2383 41.2207 42.3555 41.2617C44.1738 41.2891 45.6641 41.3438 45.6641 41.3984C45.6641 41.6445 43.5996 44.1192 42.4922 45.1992C38.1445 49.4238 34.5352 50.1348 30.3926 47.5508C28.9297 46.6484 26.5781 44.4199 25.293 42.7383C24.7734 42.041 24.3359 41.4395 24.3359 41.3984C24.3359 41.3438 25.8262 41.2891 27.6582 41.2617L30.9668 41.2207L31.7188 40.7969C32.1426 40.5508 32.6621 40.1133 32.9082 39.7715C33.8106 38.5547 33.9609 38.377 34.3711 38.1992C34.9453 37.9531 35.0957 37.9668 35.752 38.2813Z" fill="white"/>
<path d="M31.8828 42.6152C31.5957 42.7246 31.2949 43.4492 31.3906 43.8184C31.582 44.584 33.6191 45.5273 35.0684 45.5273C36.5176 45.5273 38.5547 44.584 38.7461 43.8184C38.8691 43.3398 38.5 42.6836 38.0488 42.5742C37.7617 42.4922 37.4746 42.5879 36.8457 42.9434C36.1348 43.3398 35.9023 43.4082 35.0684 43.4082C34.2344 43.4082 34.0156 43.3535 33.3457 42.957C32.6074 42.5332 32.2656 42.4512 31.8828 42.6152Z" fill="white"/>
</g>
<defs>
<clipPath id="clip0_133_86">
<rect width="70" height="70" fill="white"/>
</clipPath>
</defs>
</svg>
