<svg width="50" height="50" viewBox="0 0 50 50" fill="none" xmlns="http://www.w3.org/2000/svg">
<circle cx="25" cy="25" r="25" fill="white"/>
<path d="M35.4167 25.0002C35.4167 25.0002 35.4167 24.8752 35.4167 24.8127C35.4072 24.6127 35.3649 24.4157 35.2917 24.2293C35.236 24.0865 35.1587 23.953 35.0625 23.8335C35.0073 23.7384 34.9446 23.6479 34.875 23.5627L28.9167 17.3127C28.7279 17.1143 28.5019 16.9551 28.2516 16.8441C28.0013 16.7331 27.7316 16.6724 27.4578 16.6657C26.905 16.652 26.3694 16.8585 25.9688 17.2398C25.5682 17.621 25.3355 18.1458 25.3218 18.6986C25.3081 19.2515 25.5146 19.7871 25.8959 20.1877L28.4584 22.9168H16.6667C16.1142 22.9168 15.5843 23.1363 15.1936 23.527C14.8029 23.9177 14.5834 24.4476 14.5834 25.0002C14.5834 25.5527 14.8029 26.0826 15.1936 26.4733C15.5843 26.864 16.1142 27.0835 16.6667 27.0835H28.3125L25.6042 29.771C25.4089 29.9647 25.254 30.1951 25.1482 30.449C25.0424 30.7028 24.988 30.9751 24.988 31.2502C24.988 31.5252 25.0424 31.7975 25.1482 32.0514C25.254 32.3052 25.4089 32.5357 25.6042 32.7293C25.7979 32.9246 26.0283 33.0796 26.2822 33.1854C26.536 33.2911 26.8083 33.3456 27.0834 33.3456C27.3584 33.3456 27.6307 33.2911 27.8846 33.1854C28.1384 33.0796 28.3689 32.9246 28.5625 32.7293L34.8125 26.4793C34.9999 26.2874 35.1485 26.061 35.25 25.8127C35.3595 25.5557 35.4162 25.2794 35.4167 25.0002Z" fill="#6A2C70"/>
</svg>
