<svg width="50" height="50" viewBox="0 0 50 50" fill="none" xmlns="http://www.w3.org/2000/svg">
<circle cx="25" cy="25" r="25" transform="rotate(180 25 25)" fill="white"/>
<path d="M14.5833 25.0008C14.5833 25.0008 14.5833 25.1258 14.5833 25.1883C14.5928 25.3883 14.6351 25.5853 14.7083 25.7716C14.764 25.9145 14.8413 26.048 14.9375 26.1675C14.9927 26.2626 15.0554 26.3531 15.125 26.4383L21.0833 32.6883C21.2721 32.8867 21.4981 33.0459 21.7484 33.1569C21.9987 33.2679 22.2684 33.3285 22.5422 33.3353C23.095 33.349 23.6306 33.1425 24.0312 32.7612C24.4318 32.38 24.6645 31.8552 24.6782 31.3024C24.6919 30.7495 24.4854 30.2139 24.1041 29.8133L21.5416 27.0841L33.3333 27.0841C33.8858 27.0841 34.4157 26.8646 34.8064 26.4739C35.1971 26.0832 35.4166 25.5533 35.4166 25.0008C35.4166 24.4483 35.1971 23.9184 34.8064 23.5277C34.4157 23.137 33.8858 22.9175 33.3333 22.9175L21.6875 22.9175L24.3958 20.23C24.5911 20.0363 24.746 19.8059 24.8518 19.552C24.9576 19.2981 25.012 19.0258 25.012 18.7508C25.012 18.4758 24.9576 18.2035 24.8518 17.9496C24.746 17.6957 24.5911 17.4653 24.3958 17.2716C24.2021 17.0764 23.9717 16.9214 23.7178 16.8156C23.464 16.7098 23.1916 16.6554 22.9166 16.6554C22.6416 16.6554 22.3693 16.7098 22.1154 16.8156C21.8615 16.9214 21.6311 17.0764 21.4375 17.2716L15.1875 23.5216C15.0001 23.7136 14.8515 23.94 14.75 24.1883C14.6405 24.4452 14.5838 24.7215 14.5833 25.0008Z" fill="#6A2C70"/>
</svg>
