<svg width="51" height="51" viewBox="0 0 51 51" fill="none" xmlns="http://www.w3.org/2000/svg">
<circle cx="25.4014" cy="25.4001" r="25" transform="rotate(179.073 25.4014 25.4001)" fill="white"/>
<path d="M14.986 25.5696C14.986 25.5696 14.988 25.6946 14.9891 25.7571C15.0018 25.9568 15.0472 26.1532 15.1235 26.3383C15.1815 26.4803 15.2609 26.6125 15.359 26.7304C15.4158 26.8245 15.48 26.9141 15.5509 26.9981L21.6096 33.1509C21.8016 33.3461 22.0301 33.5017 22.2822 33.6086C22.5343 33.7156 22.8049 33.7718 23.0787 33.7742C23.6317 33.7789 24.1639 33.5637 24.5583 33.1761C24.9527 32.7884 25.1769 32.2599 25.1816 31.7069C25.1863 31.1539 24.9712 30.6217 24.5835 30.2273L21.9772 27.54L33.7673 27.3491C34.3197 27.3402 34.846 27.1122 35.2304 26.7152C35.6147 26.3182 35.8256 25.7848 35.8166 25.2324C35.8077 24.6799 35.5796 24.1536 35.1827 23.7693C34.7857 23.385 34.2523 23.1741 33.6998 23.183L22.0555 23.3715L24.72 20.6405C24.9121 20.4437 25.0634 20.2108 25.165 19.9553C25.2666 19.6997 25.3167 19.4266 25.3122 19.1516C25.3078 18.8766 25.2489 18.6052 25.1391 18.3531C25.0292 18.101 24.8705 17.8731 24.6721 17.6826C24.4753 17.4905 24.2424 17.3393 23.9869 17.2376C23.7313 17.136 23.4582 17.0859 23.1832 17.0904C22.9082 17.0948 22.6368 17.1537 22.3847 17.2635C22.1326 17.3734 21.9047 17.5321 21.7142 17.7305L15.5662 24.0808C15.3819 24.2758 15.237 24.5046 15.1395 24.7545C15.0342 25.0131 14.982 25.2903 14.986 25.5696Z" fill="#B83B5E"/>
</svg>
