<svg width="40" height="40" viewBox="0 0 40 40" fill="none" xmlns="http://www.w3.org/2000/svg">
<path d="M35.0498 24.2222H14.6925L15.147 26.4445H33.7872C34.8567 26.4445 35.6494 27.4376 35.4124 28.4805L35.0292 30.1663C36.3272 30.7964 37.2222 32.127 37.2222 33.6667C37.2222 35.8335 35.4501 37.5864 33.2761 37.5551C31.2051 37.5254 29.5018 35.8447 29.4459 33.7741C29.4154 32.6431 29.8685 31.6179 30.6128 30.8888H16.0539C16.7745 31.5948 17.2222 32.5782 17.2222 33.6667C17.2222 35.8759 15.38 37.6549 13.1479 37.5513C11.166 37.4592 9.5541 35.8579 9.44993 33.8765C9.36952 32.3463 10.1747 30.9976 11.3979 30.2941L6.51965 6.44445H1.66667C0.746181 6.44445 0 5.69826 0 4.77778V3.66667C0 2.74618 0.746181 2 1.66667 2H8.78674C9.57847 2 10.2609 2.55701 10.4196 3.33264L11.0561 6.44445H38.3326C39.4022 6.44445 40.1949 7.43757 39.9579 8.48049L36.675 22.9249C36.5026 23.6838 35.828 24.2222 35.0498 24.2222ZM28.3333 13.6667H25V10.8889C25 10.2752 24.5026 9.77778 23.8889 9.77778H22.7778C22.1641 9.77778 21.6667 10.2752 21.6667 10.8889V13.6667H18.3333C17.7197 13.6667 17.2222 14.1641 17.2222 14.7778V15.8889C17.2222 16.5026 17.7197 17 18.3333 17H21.6667V19.7778C21.6667 20.3915 22.1641 20.8889 22.7778 20.8889H23.8889C24.5026 20.8889 25 20.3915 25 19.7778V17H28.3333C28.947 17 29.4445 16.5026 29.4445 15.8889V14.7778C29.4445 14.1641 28.947 13.6667 28.3333 13.6667Z" fill="white"/>
</svg>
