<svg width="70" height="70" viewBox="0 0 70 70" fill="none" xmlns="http://www.w3.org/2000/svg">
<path d="M4.41603 4.85353C2.25587 5.44142 0.587906 7.19142 0.136734 9.33791C0.0410308 9.83009 1.51359e-05 16.6387 0.0273589 31.9238L0.0683745 53.7988L0.3965 54.5918C0.998062 56.1094 2.35158 57.4219 3.92384 58.0098L4.71681 58.3106L22.8047 58.3516L40.8789 58.3789V61.4414C40.8789 63.1367 40.9199 64.6133 40.961 64.7363C41.0703 65.0098 41.7129 65.3516 42.1231 65.3516C42.3418 65.3516 43.0801 64.709 44.502 63.3008C45.6367 62.1797 46.6211 61.25 46.6895 61.25C46.7578 61.25 47.7422 62.166 48.877 63.3008C51.1738 65.584 51.3653 65.6797 52.1035 64.9551L52.5 64.5586V61.4688V58.3926L58.8985 58.3516C65.0781 58.3106 65.3106 58.2969 66.0762 58.0098C67.6485 57.4219 69.002 56.1094 69.6035 54.5918L69.9317 53.7988L69.9727 31.9238C70 16.6387 69.959 9.83009 69.8633 9.33791C69.5215 7.7383 68.2774 6.05666 66.8828 5.34572C65.4473 4.60744 67.1563 4.64845 34.9317 4.66212C9.69337 4.66212 5.01759 4.68947 4.41603 4.85353ZM65.2012 7.19142C66.0352 7.43752 66.8828 8.13478 67.3067 8.94142L67.6074 9.50196L67.6485 31.2402C67.6895 55.3164 67.7442 53.6758 66.7871 54.7832C66.5274 55.084 66.0215 55.4805 65.666 55.6582L65.0098 55.9863L58.7617 56.0274L52.5 56.0684V53.3613V50.668L53.0742 50.0801L53.6485 49.4922L55.7129 51.543C56.8477 52.6641 57.9004 53.6074 58.0508 53.6074C58.625 53.6485 58.8711 53.5664 59.1719 53.2383L59.4727 52.8965V44.7891C59.4727 36.9961 59.4864 36.6406 59.7461 36.0801C59.8965 35.752 60.0196 35.3145 60.0196 35.1094C60.0196 34.6856 60.4571 34.3164 60.9492 34.3164C61.4141 34.3164 62.2481 33.8516 62.7129 33.3047C63.3281 32.6211 63.4922 31.9922 63.3828 30.8164L63.2871 29.8184L63.834 29.4766C64.9824 28.752 65.543 27.4668 65.2422 26.2774C65.1465 25.9219 64.9141 25.416 64.7227 25.1426C64.5449 24.8828 64.3946 24.5957 64.3946 24.5137C64.3946 24.418 64.5996 24.0352 64.8457 23.6387C65.2149 23.0371 65.2832 22.8047 65.2832 22.0938C65.2696 21 64.8731 20.2481 63.9844 19.6055L63.3008 19.1133L63.3828 18.0059C63.4512 17.0078 63.4239 16.8164 63.1367 16.2695C62.7403 15.4902 61.8379 14.8067 61.0723 14.6973C60.2383 14.5742 60.1426 14.4785 60.0059 13.7266C59.8418 12.8789 59.3496 12.1406 58.625 11.6621C58.1055 11.3067 57.9414 11.2793 56.7656 11.2793H55.4805L55.0703 10.7051C54.6465 10.0762 53.7988 9.51564 53.0742 9.36525C52.4863 9.2422 51.4063 9.51564 50.8457 9.92579C50.2852 10.3359 49.9981 10.3359 49.4375 9.91212C48.1113 8.9004 46.211 9.28321 45.2129 10.7871L44.8164 11.3613L43.791 11.2793C41.7676 11.0879 40.7149 11.9356 40.2637 14.1094C40.209 14.3828 40.086 14.5059 39.8125 14.5742C38.6914 14.8203 38.418 14.9434 37.9121 15.3809C37.1192 16.0645 36.8457 16.8164 36.9551 18.1016L37.0508 19.1133L36.3399 19.6328C35.0684 20.5899 34.6856 21.9434 35.3281 23.2695C35.5195 23.666 35.752 24.1035 35.8477 24.2402C35.9981 24.4317 35.9844 24.541 35.793 24.8555C35.2598 25.6895 35 26.3457 35 26.9063C35 27.959 35.5742 28.916 36.6133 29.5586L37.0508 29.832L36.9688 30.8848C36.9141 31.5684 36.9414 32.1289 37.0371 32.4434C37.2695 33.1406 38.1856 34.0156 38.8828 34.1934C40.086 34.4942 40.127 34.5215 40.2363 34.9317C40.3047 35.1641 40.4824 35.6563 40.6192 36.0254C40.8652 36.6817 40.8789 37.1738 40.8516 46.3477L40.8106 55.9863H22.9004H4.99025L4.334 55.6582C3.97853 55.4805 3.47267 55.084 3.21291 54.7832C2.25587 53.6758 2.31056 55.3164 2.35158 31.2402L2.39259 9.50196L2.69337 8.95509C3.13087 8.14845 3.85548 7.51955 4.6758 7.23244C5.37306 6.98634 6.64455 6.98634 34.9453 6.97267C61.291 6.97267 64.5586 7.00002 65.2012 7.19142ZM48.4395 12.0586C48.9863 12.4004 49.3145 12.5098 49.9844 12.5508C50.7774 12.6055 50.9278 12.5645 51.7344 12.1133C52.4727 11.7031 52.6778 11.6348 52.9102 11.7578C53.0606 11.8399 53.1836 11.9629 53.1836 12.0449C53.1836 12.1133 53.4297 12.4414 53.7442 12.7832C54.5235 13.6172 55.3301 13.8496 56.711 13.6035C57.3946 13.4942 57.6953 13.6719 57.6953 14.2051C57.6953 14.6152 58.1465 15.668 58.4883 16.0508C58.7891 16.3926 59.9922 16.9531 60.4297 16.9531C61.0313 16.9531 61.1133 17.1719 61.0313 18.3887C60.9492 19.3457 60.9766 19.5645 61.2227 20.043C61.5098 20.5899 62.3574 21.4649 62.6309 21.4649C62.6992 21.4649 62.836 21.6152 62.918 21.8067C63.041 22.0938 63.0137 22.2168 62.7129 22.6543C62.2344 23.3516 62.0703 23.8301 62.0703 24.5137C62.0703 25.0879 62.5899 26.4004 62.877 26.5781C63.2051 26.7832 63 27.1934 62.3164 27.6992C61.8789 28.0274 61.4688 28.4785 61.2774 28.8477C60.9903 29.3945 60.9629 29.5996 61.0313 30.584C61.1133 31.8692 61.0996 31.8828 60.0332 32.1289C58.8301 32.416 57.9414 33.3594 57.75 34.5762C57.6953 34.8906 57.586 35.1914 57.5039 35.2461C57.4219 35.3008 56.793 35.3418 56.1094 35.3418C54.9883 35.3418 54.8242 35.3828 54.3184 35.711C54.0039 35.916 53.5528 36.3672 53.3203 36.709C52.8281 37.4199 52.541 37.4746 51.9121 36.9961C50.9004 36.2305 49.5606 36.2031 48.5078 36.9141C48.1797 37.1328 47.8242 37.3242 47.7012 37.3242C47.5781 37.3242 47.2363 37.0098 46.9492 36.6133C46.1836 35.6016 45.6094 35.3418 44.1055 35.3418C42.752 35.3418 42.793 35.3692 42.5059 34.2481C42.2461 33.2363 41.3164 32.3477 40.2774 32.1152C39.8535 32.0195 39.457 31.8828 39.4024 31.8008C39.3477 31.7188 39.3067 31.0899 39.3067 30.4063C39.3067 29.2988 39.2656 29.1211 38.9375 28.6152C38.7324 28.3008 38.3086 27.877 37.9805 27.6582C37.6524 27.4395 37.3789 27.166 37.3516 27.043C37.3242 26.9336 37.502 26.5371 37.7207 26.168C38.4453 25.0332 38.4453 23.8848 37.7207 22.7774C37.2422 22.0664 37.2832 21.6973 37.8574 21.3965C38.3906 21.1231 39.0469 20.3438 39.2383 19.7422C39.3477 19.4141 39.375 18.9082 39.3203 18.2793C39.2246 17.2129 39.334 16.9531 39.9082 16.9531C40.1133 16.9531 40.6055 16.7891 41.002 16.5977C41.836 16.1738 42.4375 15.3672 42.5879 14.4512C42.7383 13.6035 42.8613 13.4942 43.668 13.6172C45.1172 13.8223 45.9649 13.5488 46.7305 12.6192C47.4414 11.7715 47.5781 11.6211 47.6738 11.6211C47.7149 11.6211 48.0703 11.8125 48.4395 12.0586ZM45.1719 38.1035C45.7598 39.0469 46.6895 39.6485 47.5098 39.6485H47.8516V46.2656V52.8965L48.166 53.252C48.5488 53.7168 49.2188 53.7442 49.7656 53.334L50.1758 53.0332V57.1758V61.3047L48.6856 59.8418C47.332 58.502 47.168 58.3789 46.6895 58.3789C46.211 58.3789 46.0469 58.502 44.6934 59.8418L43.2031 61.3047V49.5332V37.7481L43.7227 37.6934C44.8301 37.584 44.8301 37.584 45.1719 38.1035ZM56.8477 37.7344H57.1485V43.709V49.6973L55.6446 48.1934C53.6348 46.1836 53.6895 46.1836 51.6797 48.1934L50.1758 49.6973V44.1875C50.1758 41.166 50.2031 38.6914 50.2442 38.6914C50.2715 38.6914 50.586 38.8828 50.9141 39.1289C52.336 40.127 54.1953 39.6895 55.1934 38.1035C55.5078 37.5977 55.5625 37.5703 56.0274 37.6524C56.3145 37.6934 56.6699 37.7344 56.8477 37.7344Z" fill="white"/>
<path d="M11.9356 14.082C9.63869 14.4238 7.62892 16.3652 7.12306 18.7031C7.01369 19.209 6.97267 23.0918 6.97267 31.5547C6.97267 44.707 6.959 44.4199 7.72463 45.9238C8.18947 46.8535 9.31056 47.9062 10.377 48.4395L11.2793 48.877L23.3653 48.918L35.4512 48.9453L35.7793 48.6445C36.2852 48.166 36.1758 47.0996 35.5879 46.8125C35.4512 46.7441 30.0235 46.6621 23.5156 46.6211L11.6895 46.5527L11.1973 46.252C10.5137 45.8281 10.0078 45.2949 9.65236 44.6387L9.36525 44.0918V31.5137V18.9355L9.77541 18.1973C10.2129 17.418 10.6914 16.9668 11.5664 16.584C12.0586 16.3516 12.9336 16.3379 23.2832 16.2695L34.4805 16.2012L34.7403 15.873C35.0957 15.4355 35.0684 14.8613 34.6719 14.3965L34.3438 14.0137L23.4883 14C17.5274 13.9863 12.332 14.0273 11.9356 14.082Z" fill="white"/>
<path d="M13.1934 21.3965C12.7559 21.8203 12.7559 22.4219 13.1797 22.9277L13.5078 23.3105H22.1211H30.7344L31.0899 22.9824C31.5547 22.5449 31.5821 21.7793 31.1309 21.3555L30.8164 21.0547H22.1621H13.5215L13.1934 21.3965Z" fill="white"/>
<path d="M13.1934 26.0449C12.7149 26.5098 12.7422 27.1113 13.2481 27.6309L13.6446 28.0273H22.0801C30.9805 28.0273 31.1309 28.0137 31.3633 27.4121C31.541 26.9336 31.4453 26.373 31.1035 26.0449L30.7754 25.7031H22.1485H13.5215L13.1934 26.0449Z" fill="white"/>
<path d="M13.1934 30.6934C12.5645 31.3086 12.8652 32.4023 13.7129 32.6074C13.877 32.6484 17.8145 32.6621 22.4629 32.6484L30.9258 32.6074L31.1855 32.2793C31.5547 31.8281 31.5273 31.1035 31.1035 30.6934L30.7754 30.3516H22.1484H13.5215L13.1934 30.6934Z" fill="white"/>
<path d="M17.1992 37.543C16.8164 37.748 16.7617 37.8711 16.6113 38.9375C16.4473 40.209 15.7773 40.9883 14.123 41.8086C13.1934 42.2871 12.8516 42.6699 12.8516 43.2441C12.8516 43.7773 13.3984 44.2969 13.959 44.2969C14.7383 44.2969 16.3789 43.3672 17.3906 42.3691L18.3066 41.4531L18.6074 41.7813C19.8516 43.1074 21.834 43.5313 23.0098 42.7383C23.4609 42.4238 23.4746 42.4238 23.9395 42.6563C25.0742 43.2441 29.0391 44.0234 30.8711 44.0234C31.8008 44.0234 31.9102 43.9961 32.2793 43.627C32.7852 43.1074 32.7988 42.6152 32.293 42.123C31.9512 41.7676 31.8281 41.7402 30.3516 41.6582C29.3262 41.6035 28.1777 41.4258 27.0703 41.1523C24.9512 40.6328 24.6367 40.5098 24.3633 40.0723C23.8984 39.3203 23.625 39.1016 23.1055 39.1016C22.4902 39.1016 22.0391 39.5391 21.916 40.25C21.875 40.5371 21.752 40.7969 21.6562 40.8379C21.0957 41.0566 19.6055 39.7168 19.0723 38.4863C18.5801 37.3926 18.0059 37.0918 17.1992 37.543Z" fill="white"/>
<path d="M48.125 15.3945C46.8672 15.6543 44.9395 16.666 43.9277 17.5684C42.8613 18.5254 41.9316 19.9062 41.3984 21.3555C41.0566 22.2988 40.9746 22.75 40.9199 24.0625C40.8379 25.9902 41.0566 27.0566 41.8633 28.7109C42.3281 29.6406 42.6699 30.1055 43.6133 31.0352C45.5137 32.9355 47.5098 33.7695 50.1621 33.7695C51.8027 33.7695 52.9375 33.5098 54.373 32.7988C58.7891 30.6113 60.7305 25.0195 58.5977 20.5762C57.6133 18.498 56.2461 17.1172 54.209 16.1328C52.2949 15.2168 50.1621 14.957 48.125 15.3945ZM51.5703 17.6504C52.7871 17.8965 54.168 18.6484 55.0566 19.5371C57.8457 22.3125 57.832 26.7285 55.043 29.4629C53.6348 30.8437 52.1445 31.4453 50.1758 31.4453C48.166 31.4453 46.7168 30.8437 45.2402 29.3945C43.8867 28.0547 43.2031 26.4414 43.2031 24.541C43.2031 20.1113 47.2773 16.7617 51.5703 17.6504Z" fill="white"/>
</svg>
