<svg width="40" height="40" viewBox="0 0 40 40" fill="none" xmlns="http://www.w3.org/2000/svg">
<path d="M21.5625 19.9997C21.5625 20.3087 21.4709 20.6108 21.2992 20.8678C21.1275 21.1247 20.8835 21.325 20.5979 21.4433C20.3124 21.5615 19.9983 21.5925 19.6952 21.5322C19.3921 21.4719 19.1137 21.3231 18.8951 21.1046C18.6766 20.886 18.5278 20.6076 18.4675 20.3045C18.4072 20.0014 18.4382 19.6873 18.5564 19.4018C18.6747 19.1162 18.875 18.8722 19.1319 18.7005C19.3889 18.5288 19.691 18.4372 20 18.4372C20.4144 18.4372 20.8118 18.6018 21.1049 18.8948C21.3979 19.1879 21.5625 19.5853 21.5625 19.9997ZM13.125 18.4372C12.816 18.4372 12.5139 18.5288 12.2569 18.7005C12 18.8722 11.7997 19.1162 11.6814 19.4018C11.5632 19.6873 11.5322 20.0014 11.5925 20.3045C11.6528 20.6076 11.8016 20.886 12.0201 21.1046C12.2387 21.3231 12.5171 21.4719 12.8202 21.5322C13.1233 21.5925 13.4374 21.5615 13.7229 21.4433C14.0085 21.325 14.2525 21.1247 14.4242 20.8678C14.5959 20.6108 14.6875 20.3087 14.6875 19.9997C14.6875 19.5853 14.5229 19.1879 14.2299 18.8948C13.9368 18.6018 13.5394 18.4372 13.125 18.4372ZM26.875 18.4372C26.566 18.4372 26.2639 18.5288 26.0069 18.7005C25.75 18.8722 25.5497 19.1162 25.4314 19.4018C25.3132 19.6873 25.2822 20.0014 25.3425 20.3045C25.4028 20.6076 25.5516 20.886 25.7701 21.1046C25.9887 21.3231 26.2671 21.4719 26.5702 21.5322C26.8733 21.5925 27.1874 21.5615 27.4729 21.4433C27.7585 21.325 28.0025 21.1247 28.1742 20.8678C28.3459 20.6108 28.4375 20.3087 28.4375 19.9997C28.4375 19.5853 28.2729 19.1879 27.9799 18.8948C27.6868 18.6018 27.2894 18.4372 26.875 18.4372ZM35.9375 19.9997C35.9381 22.7625 35.2204 25.4781 33.8549 27.8799C32.4895 30.2817 30.5231 32.2873 28.1487 33.6999C25.7743 35.1125 23.0734 35.8836 20.3111 35.9375C17.5488 35.9914 14.8199 35.3264 12.3922 34.0075L6.94375 35.8231C6.55832 35.9517 6.14471 35.9703 5.74928 35.877C5.35384 35.7837 4.99221 35.5821 4.70491 35.2948C4.41762 35.0075 4.21601 34.6459 4.12269 34.2504C4.02937 33.855 4.04803 33.4414 4.17656 33.0559L5.99219 27.6075C4.83478 25.4747 4.17968 23.1058 4.07682 20.6814C3.97397 18.257 4.42608 15.8411 5.39869 13.6179C6.37129 11.3948 7.83871 9.42308 9.68904 7.85317C11.5394 6.28325 13.7238 5.15658 16.0756 4.55907C18.4275 3.96156 20.8848 3.90898 23.2601 4.40535C25.6354 4.90172 27.8659 5.93392 29.7817 7.42326C31.6975 8.91259 33.2479 10.8197 34.3147 12.9992C35.3815 15.1788 35.9366 17.5731 35.9375 19.9997ZM34.0625 19.9997C34.062 17.8425 33.5652 15.7144 32.6106 13.78C31.656 11.8455 30.2691 10.1566 28.5573 8.84392C26.8455 7.53124 24.8547 6.62997 22.7388 6.20983C20.623 5.7897 18.4388 5.86197 16.3554 6.42105C14.2719 6.98013 12.345 8.01103 10.7237 9.43399C9.10246 10.857 7.83028 12.6338 7.00563 14.6272C6.18097 16.6205 5.82596 18.7768 5.96804 20.9293C6.11012 23.0818 6.74549 25.1727 7.825 27.0403C7.89168 27.1553 7.93313 27.2832 7.9466 27.4155C7.96007 27.5478 7.94525 27.6814 7.90313 27.8075L5.95625 33.6481C5.93789 33.7032 5.93522 33.7623 5.94855 33.8188C5.96189 33.8753 5.99069 33.9269 6.03173 33.968C6.07277 34.009 6.12443 34.0378 6.18092 34.0511C6.23741 34.0645 6.2965 34.0618 6.35156 34.0434L12.1875 32.0966C12.2833 32.0651 12.3835 32.0487 12.4844 32.0481C12.6489 32.0491 12.8104 32.0927 12.9531 32.1747C15.091 33.4127 17.5174 34.0656 19.9879 34.0677C22.4583 34.0699 24.8858 33.4211 27.0258 32.1869C29.1659 30.9526 30.943 29.1763 32.1783 27.0368C33.4136 24.8973 34.0635 22.4702 34.0625 19.9997Z" fill="#F08A5D"/>
</svg>
