<svg width="35" height="35" viewBox="0 0 35 35" fill="none" xmlns="http://www.w3.org/2000/svg">
<path d="M14.5835 17.5007C14.5835 18.2742 14.8908 19.0161 15.4378 19.563C15.9847 20.11 16.7266 20.4173 17.5002 20.4173C18.2737 20.4173 19.0156 20.11 19.5626 19.563C20.1095 19.0161 20.4168 18.2742 20.4168 17.5007C20.4168 16.7271 20.1095 15.9852 19.5626 15.4383C19.0156 14.8913 18.2737 14.584 17.5002 14.584C16.7266 14.584 15.9847 14.8913 15.4378 15.4383C14.8908 15.9852 14.5835 16.7271 14.5835 17.5007ZM14.5835 8.75065C14.5835 9.5242 14.8908 10.2661 15.4378 10.813C15.9847 11.36 16.7266 11.6673 17.5002 11.6673C18.2737 11.6673 19.0156 11.36 19.5626 10.813C20.1095 10.2661 20.4168 9.5242 20.4168 8.75065C20.4168 7.9771 20.1095 7.23524 19.5626 6.68826C19.0156 6.14128 18.2737 5.83398 17.5002 5.83398C16.7266 5.83398 15.9847 6.14128 15.4378 6.68826C14.8908 7.23524 14.5835 7.9771 14.5835 8.75065ZM14.5835 26.2507C14.5835 27.0242 14.8908 27.7661 15.4378 28.313C15.9847 28.86 16.7266 29.1673 17.5002 29.1673C18.2737 29.1673 19.0156 28.86 19.5626 28.313C20.1095 27.7661 20.4168 27.0242 20.4168 26.2507C20.4168 25.4771 20.1095 24.7352 19.5626 24.1883C19.0156 23.6413 18.2737 23.334 17.5002 23.334C16.7266 23.334 15.9847 23.6413 15.4378 24.1883C14.8908 24.7352 14.5835 25.4771 14.5835 26.2507Z" fill="black"/>
</svg>
