<svg width="30" height="30" viewBox="0 0 30 30" fill="none" xmlns="http://www.w3.org/2000/svg">
<path d="M24.2513 9.17702L20.8263 5.75202C20.3793 5.33214 19.7936 5.09122 19.1805 5.07508C18.5674 5.05895 17.9698 5.26873 17.5013 5.66452L6.25135 16.9145C5.8473 17.322 5.59573 17.856 5.53885 18.427L5.00135 23.6395C4.98451 23.8226 5.00827 24.0072 5.07092 24.18C5.13358 24.3529 5.2336 24.5098 5.36385 24.6395C5.48065 24.7554 5.61917 24.847 5.77146 24.9092C5.92376 24.9714 6.08684 25.003 6.25135 25.002H6.36385L11.5763 24.527C12.1473 24.4701 12.6814 24.2186 13.0888 23.8145L24.3388 12.5645C24.7755 12.1032 25.0115 11.4877 24.9951 10.8527C24.9787 10.2177 24.7112 9.61515 24.2513 9.17702ZM11.3513 22.027L7.60135 22.377L7.93885 18.627L15.0013 11.652L18.3763 15.027L11.3513 22.027ZM20.0013 13.352L16.6513 10.002L19.0888 7.50202L22.5013 10.9145L20.0013 13.352Z" fill="black"/>
</svg>
