<svg width="50" height="50" viewBox="0 0 50 50" fill="none" xmlns="http://www.w3.org/2000/svg">
<circle cx="25" cy="25" r="25" fill="white"/>
<path d="M33.0746 17.499L31.5391 18.499L25.0015 22.549L18.4638 18.459L16.9284 17.459C16.5667 17.2095 16.1251 17.054 15.6584 17.0117C15.1917 16.9694 14.7204 17.0422 14.3028 17.221C13.8852 17.3999 13.5398 17.6769 13.3092 18.0178C13.0787 18.3587 12.9732 18.7486 13.0058 19.139V30.729C13.0058 31.0897 13.1777 31.4356 13.4836 31.6906C13.7896 31.9457 14.2045 32.089 14.6372 32.089H18.4638V24.369L25.0015 28.459L31.5391 24.369V32.089H35.3658C35.7984 32.089 36.2134 31.9457 36.5194 31.6906C36.8253 31.4356 36.9972 31.0897 36.9972 30.729V19.139C37.0197 18.7519 36.9069 18.3678 36.6724 18.0332C36.4379 17.6986 36.0919 17.428 35.6764 17.2543C35.2609 17.0806 34.7938 17.0112 34.3319 17.0547C33.87 17.0981 33.4332 17.2524 33.0746 17.499Z" fill="black"/>
</svg>
