<svg width="40" height="40" viewBox="0 0 40 40" fill="none" xmlns="http://www.w3.org/2000/svg">
<path d="M20 35.0005C19.7806 35.0018 19.5632 34.9597 19.3601 34.8768C19.157 34.7939 18.9724 34.6716 18.8166 34.5172L5.86662 21.5505C4.24222 19.9091 3.33105 17.6931 3.33105 15.3838C3.33105 13.0746 4.24222 10.8586 5.86662 9.21718C7.50372 7.5847 9.72133 6.66797 12.0333 6.66797C14.3452 6.66797 16.5628 7.5847 18.2 9.21718L20 11.0172L21.7999 9.21718C23.4371 7.5847 25.6547 6.66797 27.9666 6.66797C30.2786 6.66797 32.4962 7.5847 34.1333 9.21718C35.7577 10.8586 36.6688 13.0746 36.6688 15.3838C36.6688 17.6931 35.7577 19.9091 34.1333 21.5505L21.1833 34.5172C21.0275 34.6716 20.8429 34.7939 20.6398 34.8768C20.4367 34.9597 20.2193 35.0018 20 35.0005Z" fill="#6A2C70"/>
</svg>
