<svg width="15" height="15" viewBox="0 0 15 15" fill="none" xmlns="http://www.w3.org/2000/svg">
<path d="M7.5001 13.1249C7.41785 13.1254 7.33631 13.1097 7.26016 13.0786C7.18401 13.0475 7.11475 13.0016 7.05635 12.9437L2.2001 8.0812C1.59095 7.46569 1.24927 6.63468 1.24927 5.7687C1.24927 4.90272 1.59095 4.07171 2.2001 3.4562C2.81402 2.84402 3.64562 2.50024 4.5126 2.50024C5.37958 2.50024 6.21119 2.84402 6.8251 3.4562L7.5001 4.1312L8.1751 3.4562C8.78902 2.84402 9.62062 2.50024 10.4876 2.50024C11.3546 2.50024 12.1862 2.84402 12.8001 3.4562C13.4093 4.07171 13.7509 4.90272 13.7509 5.7687C13.7509 6.63468 13.4093 7.46569 12.8001 8.0812L7.94385 12.9437C7.88545 13.0016 7.81619 13.0475 7.74005 13.0786C7.6639 13.1097 7.58236 13.1254 7.5001 13.1249Z" fill="#6A2C70"/>
</svg>
