<svg width="15" height="15" viewBox="0 0 15 15" fill="none" xmlns="http://www.w3.org/2000/svg">
<path d="M7.49986 13.1247C7.4176 13.1252 7.33607 13.1094 7.25992 13.0783C7.18377 13.0472 7.11451 13.0014 7.05611 12.9435L2.19986 8.08096C1.59071 7.46544 1.24902 6.63443 1.24902 5.76845C1.24902 4.90248 1.59071 4.07147 2.19986 3.45596C2.81377 2.84377 3.64538 2.5 4.51236 2.5C5.37934 2.5 6.21095 2.84377 6.82486 3.45596L7.49986 4.13096L8.17486 3.45596C8.78877 2.84377 9.62038 2.5 10.4874 2.5C11.3543 2.5 12.1859 2.84377 12.7999 3.45596C13.409 4.07147 13.7507 4.90248 13.7507 5.76845C13.7507 6.63443 13.409 7.46544 12.7999 8.08096L7.94361 12.9435C7.88521 13.0014 7.81595 13.0472 7.7398 13.0783C7.66365 13.1094 7.58211 13.1252 7.49986 13.1247ZM4.51236 3.74971C4.24778 3.74851 3.9856 3.79982 3.74099 3.90066C3.49638 4.00151 3.27422 4.14989 3.08736 4.33721C2.7099 4.71666 2.49801 5.23011 2.49801 5.76533C2.49801 6.30055 2.7099 6.814 3.08736 7.19346L7.49986 11.6122L11.9124 7.19346C12.2898 6.814 12.5017 6.30055 12.5017 5.76533C12.5017 5.23011 12.2898 4.71666 11.9124 4.33721C11.5271 3.97327 11.0173 3.77052 10.4874 3.77052C9.95742 3.77052 9.44757 3.97327 9.06236 4.33721L7.94361 5.46221C7.88551 5.52079 7.81638 5.56728 7.74022 5.59901C7.66406 5.63074 7.58237 5.64708 7.49986 5.64708C7.41735 5.64708 7.33566 5.63074 7.2595 5.59901C7.18334 5.56728 7.11421 5.52079 7.05611 5.46221L5.93736 4.33721C5.7505 4.14989 5.52834 4.00151 5.28373 3.90066C5.03912 3.79982 4.77694 3.74851 4.51236 3.74971Z" fill="#6A2C70"/>
</svg>
