<svg width="15" height="15" viewBox="0 0 15 15" fill="none" xmlns="http://www.w3.org/2000/svg">
<path d="M7.5 13.1249C7.41775 13.1254 7.33621 13.1097 7.26006 13.0786C7.18391 13.0475 7.11465 13.0016 7.05625 12.9437L2.2 8.0812C1.59085 7.46569 1.24917 6.63468 1.24917 5.7687C1.24917 4.90272 1.59085 4.07171 2.2 3.4562C2.81392 2.84402 3.64552 2.50024 4.5125 2.50024C5.37948 2.50024 6.21109 2.84402 6.825 3.4562L7.5 4.1312L8.175 3.4562C8.78892 2.84402 9.62052 2.50024 10.4875 2.50024C11.3545 2.50024 12.1861 2.84402 12.8 3.4562C13.4092 4.07171 13.7508 4.90272 13.7508 5.7687C13.7508 6.63468 13.4092 7.46569 12.8 8.0812L7.94375 12.9437C7.88535 13.0016 7.81609 13.0475 7.73995 13.0786C7.6638 13.1097 7.58226 13.1254 7.5 13.1249Z" fill="white"/>
</svg>
