<svg width="50" height="50" viewBox="0 0 50 50" fill="none" xmlns="http://www.w3.org/2000/svg">
<circle cx="25" cy="25" r="25" fill="white"/>
<path d="M24.9968 20.9983C22.7933 20.9983 20.9951 22.7965 20.9951 25C20.9951 27.2035 22.7933 29.0017 24.9968 29.0017C27.2002 29.0017 28.9984 27.2035 28.9984 25C28.9984 22.7965 27.2002 20.9983 24.9968 20.9983ZM36.9987 25C36.9987 23.3429 37.0137 21.7008 36.9206 20.0467C36.8275 18.1254 36.3893 16.4202 34.9843 15.0153C33.5764 13.6073 31.8743 13.172 29.953 13.0789C28.2959 12.9859 26.6539 13.0009 24.9998 13.0009C23.3427 13.0009 21.7006 12.9859 20.0465 13.0789C18.1253 13.172 16.4201 13.6103 15.0152 15.0153C13.6073 16.4232 13.172 18.1254 13.0789 20.0467C12.9859 21.7038 13.0009 23.3459 13.0009 25C13.0009 26.6541 12.9859 28.2992 13.0789 29.9533C13.172 31.8746 13.6103 33.5798 15.0152 34.9847C16.4231 36.3927 18.1253 36.828 20.0465 36.9211C21.7036 37.0141 23.3457 36.9991 24.9998 36.9991C26.6569 36.9991 28.2989 37.0141 29.953 36.9211C31.8743 36.828 33.5794 36.3897 34.9843 34.9847C36.3923 33.5768 36.8275 31.8746 36.9206 29.9533C37.0167 28.2992 36.9987 26.6571 36.9987 25ZM24.9968 31.1572C21.5895 31.1572 18.8397 28.4073 18.8397 25C18.8397 21.5927 21.5895 18.8428 24.9968 18.8428C28.404 18.8428 31.1538 21.5927 31.1538 25C31.1538 28.4073 28.404 31.1572 24.9968 31.1572ZM31.406 20.0286C30.6105 20.0286 29.968 19.3862 29.968 18.5907C29.968 17.7951 30.6105 17.1527 31.406 17.1527C32.2015 17.1527 32.8439 17.7951 32.8439 18.5907C32.8442 18.7796 32.8071 18.9667 32.735 19.1412C32.6628 19.3158 32.5569 19.4744 32.4233 19.608C32.2897 19.7416 32.1311 19.8475 31.9565 19.9197C31.782 19.9918 31.5949 20.0289 31.406 20.0286Z" fill="black"/>
</svg>
