<svg width="70" height="70" viewBox="0 0 70 70" fill="none" xmlns="http://www.w3.org/2000/svg">
<path d="M27.6172 0.0956955C19.373 1.05273 12.9062 7 11.252 15.1484C11.0332 16.2012 11.0059 17.2129 11.0059 23.9941V31.6504L11.334 32.375C11.9629 33.7695 13.5625 34.8633 14.9844 34.8633C15.4219 34.8633 15.6133 34.9316 15.7227 35.123C16.0234 35.6973 16.748 35.9707 18.1836 36.0664L19.5508 36.1621L19.1543 37.2695C18.7168 38.5273 18.2793 39.293 16.4883 41.8906C14.4238 44.8711 13.5625 46.9629 13.248 49.752C13.1113 50.9414 13.166 53.2109 13.3574 54.1406C13.4121 54.4687 13.3438 54.5508 12.6328 54.9609C11.5117 55.5898 10.2812 56.875 9.66602 58.0645C8.8457 59.6367 8.75 60.334 8.75 65.1191V69.3301L9.0918 69.6582C9.51562 70.0957 10.0352 70.0957 10.459 69.6582L10.8008 69.3301V65.1875C10.8008 60.5391 10.8828 59.9648 11.6758 58.6523C12.127 57.9141 13.3848 56.7383 13.7266 56.7383C13.8359 56.7383 14.1914 57.6816 14.6699 59.1582C15.9277 63.0957 16.2148 64.5176 16.3926 67.5937C16.4883 69.3437 16.5156 69.5078 16.8027 69.7402C17.2129 70.082 17.6504 70.0684 18.1016 69.7129C18.4434 69.4531 18.457 69.3711 18.457 68.209C18.457 65.3379 17.9512 62.6992 16.5977 58.4883C15.4355 54.8516 15.2578 53.8809 15.2715 51.3379C15.2715 49.7109 15.3398 49.0547 15.5723 48.1934C15.9688 46.6895 16.8574 44.9531 18.252 42.9297C19.8105 40.7012 20.4258 39.6758 20.877 38.5273C21.0957 38.0215 21.2871 37.5977 21.3281 37.6113C21.3691 37.6113 21.793 38.2266 22.2852 38.9922C23.2832 40.5234 25.0742 42.3555 26.4961 43.2715L27.3438 43.8184V45.9375C27.3438 47.7012 27.2891 48.1523 27.084 48.6035C26.7422 49.3418 25.9082 50.1348 25.1562 50.3945C22.6406 51.2969 21.3145 52.6914 20.918 54.8379C20.8223 55.3301 20.7812 58.1738 20.8086 62.5488L20.8496 69.4805L21.1777 69.7402C21.5879 70.082 22.0254 70.0684 22.4629 69.7266L22.8184 69.4395L22.8594 62.166L22.9004 54.8926L23.2148 54.3047C23.3926 53.9629 23.584 53.7578 23.6797 53.8125C23.7617 53.8672 24.2129 54.1953 24.6914 54.5645C26.9473 56.2734 30.0098 57.4766 32.8809 57.791L33.8379 57.9004L33.8789 59.2266C33.9062 60.3066 33.8789 60.5664 33.7285 60.5664C33.373 60.5664 32.3066 61.6465 32.0605 62.2344C31.582 63.4375 31.8691 65.6523 32.7031 67.3203C33.5508 69.0156 34.3984 70 35 70C35.6016 70 36.4492 69.0156 37.3105 67.3066C38.1172 65.6797 38.4043 63.4102 37.9395 62.2344C37.6934 61.6465 36.627 60.5664 36.2715 60.5664C36.1211 60.5664 36.0938 60.3066 36.1211 59.2266L36.1621 57.9004L37.0508 57.8047C40.1953 57.4629 43.4355 56.0957 45.9512 54.0723L46.8945 53.3066L51.2422 54.8379C55.3711 56.2871 56.4648 56.7383 57.0801 57.2168C57.3945 57.4766 57.627 57.2441 54.5508 59.7051C51.8848 61.8379 51.3926 62.3301 50.873 63.4375C50.5312 64.1484 50.5176 64.3262 50.4766 66.8008L50.4355 69.4121L50.8047 69.7129C51.2559 70.0684 51.6934 70.082 52.1035 69.7402C52.418 69.4805 52.4316 69.3984 52.5 67.0332C52.5957 63.8066 52.4727 63.998 55.8496 61.2773C57.2715 60.1426 58.502 59.2129 58.5703 59.2402C58.6387 59.2676 58.7891 59.5273 58.9121 59.8281C59.0762 60.252 59.1309 61.291 59.1855 64.9141L59.2676 69.4805L59.5957 69.7402C60.0332 70.0957 60.5117 70.0684 60.9082 69.6582L61.25 69.3301V65.1191C61.25 60.334 61.1543 59.6504 60.334 58.0645C59.7461 56.916 58.3789 55.4941 57.3535 54.9336C56.9707 54.7422 53.9355 53.6074 50.5859 52.4316C44.8438 50.4082 43.9277 50.0254 43.3672 49.3555C42.8887 48.7949 42.6562 48.043 42.6562 47.0039C42.6562 45.8691 42.6152 45.9238 43.5723 45.7324C44.1875 45.6094 45.0488 44.9395 45.418 44.3105C45.7051 43.791 45.7734 43.7637 46.5527 43.6816C48.8633 43.4219 50.4219 42.6836 52.0215 41.084C53.6211 39.498 54.3457 37.9668 54.6191 35.6426L54.7012 34.8633H55.207C56.4238 34.8633 58.0781 33.6465 58.707 32.2793C58.9805 31.6641 58.9941 31.459 59.0352 25.0195C59.0898 17.8281 58.9941 16.1191 58.4336 13.959C56.6289 7.04101 51.2012 1.90038 44.0098 0.314445C43.1484 0.136711 41.8496 0.0956955 35.5469 0.0683517C31.4453 0.0546799 27.877 0.0546799 27.6172 0.0956955ZM44.0234 2.41991C49.7793 3.82812 54.3184 7.92968 56.1094 13.3301C56.793 15.3945 56.8887 16.2422 56.9707 20.2617L57.0391 24.0625H55.877H54.7148L54.6602 20.2617C54.5918 16.748 54.5645 16.3789 54.2363 15.1484C53.5391 12.5234 52.1992 10.2266 50.2715 8.38086C48.207 6.41211 46.0059 5.24999 43.1348 4.62109C42.5195 4.48437 40.5371 4.44335 35 4.44335C29.4629 4.44335 27.4805 4.48437 26.8652 4.62109C23.9941 5.24999 21.793 6.41211 19.7285 8.38086C17.3086 10.6914 15.8594 13.6035 15.4492 16.9531C15.3809 17.582 15.3125 19.4414 15.3125 21.082V24.0625H14.1367H12.9609L13.0293 20.125C13.0977 16.0508 13.1797 15.3945 13.8359 13.3984C14.916 10.0488 17.377 6.84961 20.3574 4.85351C21.8203 3.8828 22.9688 3.32226 24.6367 2.80273C26.8242 2.10546 27.4941 2.06445 35.4785 2.10546C42.4102 2.14648 42.9297 2.16015 44.0234 2.41991ZM30.9805 7.38281C31.8418 11.5664 34.207 15.2441 37.6113 17.6777C38.7324 18.4707 40.6465 19.4277 42.041 19.8789C44.0098 20.5078 45.2539 20.6445 49.0957 20.6445H52.6367V21.8203V22.9961L48.4395 22.9277C43.9551 22.8594 43.2852 22.7773 41.0156 22.0117C36.5996 20.4941 32.6758 17.1309 30.502 13.0019C30.1328 12.2773 29.5996 11.0332 29.3398 10.2539C28.8613 8.83203 28.4102 6.63086 28.5605 6.49414C28.6016 6.45312 29.1211 6.43945 29.7227 6.45312L30.8027 6.49414L30.9805 7.38281ZM43.4902 6.79492C48.5352 8.18945 52.0488 12.373 52.5684 17.5957L52.6641 18.5937H49.1777C45.2266 18.5937 44.0234 18.4434 42.1094 17.7324C38.6094 16.4062 35.875 13.9316 34.248 10.5957C33.8379 9.76171 33.3867 8.59961 33.2227 8.01171C32.7715 6.20703 32.2246 6.39843 37.707 6.45312C42 6.50781 42.5469 6.53515 43.4902 6.79492ZM26.5234 7.16406C26.5234 8.4082 27.5078 11.5527 28.5195 13.6035L29.2715 15.1074L27.5898 16.748C26.6602 17.6504 25.375 18.7852 24.7461 19.2773C22.9141 20.6855 22.5039 21.123 22.627 21.5605C22.7637 22.1211 23.0918 22.4219 23.584 22.4219C24.2539 22.4219 26.4551 20.7129 28.9844 18.2246L30.4336 16.8027L31.3223 17.8144C33.2637 20.0156 35.3691 21.6562 37.8027 22.873C40.4961 24.2129 43.0664 24.8691 46.2109 25.0059L48.1934 25.0879L48.1797 28.7109C48.1797 32.7305 48.043 33.6191 47.1406 35.793C46.6758 36.9141 45.377 38.9375 44.748 39.5527C44.3516 39.9219 44.3379 39.9219 43.8457 39.7168C43.5176 39.5801 42.9023 39.5117 42.0547 39.5117C40.9199 39.5117 40.6875 39.5527 40.0449 39.8945C37.8848 41.0293 37.8164 44.1055 39.9219 45.418L40.5781 45.8281L40.6328 47.2773C40.6738 48.5352 40.7422 48.8496 41.084 49.5605C41.6035 50.627 42.5742 51.5977 43.6816 52.1172C44.1738 52.3359 44.5703 52.541 44.5703 52.5684C44.5703 52.5957 44.1465 52.8965 43.6406 53.2383C39.0742 56.2734 33.3184 56.7109 28.4512 54.4004C27.4531 53.9355 25.4297 52.7051 25.4297 52.5684C25.4297 52.541 25.8262 52.3359 26.3184 52.1035C27.4121 51.5977 28.4102 50.6133 28.9297 49.5332C29.2852 48.7949 29.3262 48.5898 29.3672 46.7852C29.4219 45.0215 29.4492 44.8301 29.6406 44.9121C31.1445 45.4863 34.4941 46.0605 35.1777 45.8555C35.7109 45.6914 35.957 45.377 35.957 44.8301C35.957 44.1328 35.6289 43.9277 34.248 43.8184C28.5879 43.3398 24.0078 39.7578 22.3672 34.4941C21.8613 32.8809 21.7383 31.5273 21.7383 27.8086C21.7383 24.6094 21.7246 24.5 21.4375 24.0625C20.8359 23.1738 20.5078 23.0508 18.8535 22.9961L17.3633 22.9414V20.5078C17.3633 17.6094 17.5137 16.3516 18.0605 14.6973C18.6484 12.9062 19.5371 11.498 20.9863 10.0488C22.3398 8.69531 23.8164 7.72461 25.375 7.17773C26.5371 6.76757 26.5234 6.76757 26.5234 7.16406ZM19.6602 29.4902L19.6191 33.9746H18.5254H17.4316L17.3906 29.4902L17.3633 25.0195H18.5254H19.6875L19.6602 29.4902ZM52.5684 29.5312V33.9746L51.4473 34.0156L50.3125 34.0566V29.5312V25.0059L51.4473 25.0469L52.5684 25.0879V29.5312ZM15.3125 29.4629V32.8125H14.916C14.4648 32.8125 13.7539 32.3613 13.3438 31.8144C13.084 31.459 13.0566 31.2129 13.0156 28.7656L12.9746 26.1133H14.1367H15.3125V29.4629ZM56.9844 28.5742C57.0117 30.8301 56.998 31.0078 56.7109 31.582C56.3555 32.2793 55.6445 32.8125 55.084 32.8125H54.6875V29.4629V26.0996L55.8223 26.1406L56.9434 26.1816L56.9844 28.5742ZM51.1738 36.0664C51.8984 36.0937 52.5 36.1484 52.5 36.1621C52.5 36.1758 52.4043 36.5176 52.2812 36.9277C51.7344 38.8008 50.2441 40.4277 48.3984 41.1523C47.6602 41.4395 45.9785 41.7402 45.7734 41.6172C45.7051 41.5762 45.9512 41.2207 46.3066 40.8379C47.373 39.7031 48.5215 37.8848 49.123 36.3945C49.3145 35.916 49.4102 35.8203 49.6016 35.8887C49.7246 35.9434 50.4355 36.0254 51.1738 36.0664ZM43.4355 41.8633C43.6406 42.0547 43.75 42.3145 43.75 42.6152C43.75 43.2578 43.5586 43.5586 43.0527 43.7363C42.1641 44.0508 40.8652 43.832 40.6055 43.3398C40.373 42.9023 40.4551 42.2187 40.7695 41.877C41.0293 41.6035 41.1934 41.5625 42.0957 41.5625C42.957 41.5625 43.1621 41.6035 43.4355 41.8633ZM35.7656 62.6582C36.0938 62.9453 36.1348 63.0684 36.1074 63.793C36.0801 65.0098 35.3828 67.1289 35 67.1289C34.6172 67.1289 33.9199 65.0098 33.8926 63.793C33.8652 63.0684 33.9062 62.9453 34.2344 62.6582C34.4395 62.4805 34.7812 62.3437 35 62.3437C35.2188 62.3437 35.5605 62.4805 35.7656 62.6582Z" fill="white"/>
<path d="M28.3828 22.6269C26.7422 22.9004 26.6738 22.9414 26.4414 23.4336C26.2363 23.8437 26.2363 23.9121 26.4414 24.3086C26.7285 24.8555 27.0977 24.9512 28.3281 24.7461C30.1875 24.459 30.4883 24.2676 30.4883 23.4062C30.4883 22.5996 29.9004 22.3808 28.3828 22.6269Z" fill="white"/>
<path d="M28.0273 26.4277C27.5215 26.6875 27.3301 27.166 27.3848 28.0547C27.4394 29.0117 27.7266 29.3945 28.3965 29.3945C29.1484 29.3945 29.3945 29.0254 29.3945 27.8496C29.3945 27.0566 29.3398 26.7969 29.1621 26.6328C28.793 26.3047 28.4101 26.2363 28.0273 26.4277Z" fill="white"/>
<path d="M41.2891 26.3457C40.7285 26.5508 40.6055 26.8242 40.6055 27.8496C40.6055 28.6699 40.6602 28.9024 40.8789 29.1211C41.248 29.4903 41.9863 29.4766 42.3281 29.1074C42.7109 28.6836 42.6973 27.0567 42.3145 26.6739C42 26.3731 41.5898 26.2364 41.2891 26.3457Z" fill="white"/>
<path d="M30.9668 34.3164C30.543 34.7949 30.6387 35.3965 31.2402 35.916C32.1973 36.75 33.0449 36.9824 35.0684 36.9824C36.6816 36.9688 36.9141 36.9414 37.5977 36.627C38.7734 36.0801 39.2383 35.6152 39.2383 35.0137C39.2383 34.0566 38.2812 33.7148 37.4199 34.3711C36.7773 34.8496 36.1758 35 35 35C33.8242 35 33.2227 34.8496 32.5801 34.3711C32.0332 33.9609 31.3086 33.9336 30.9668 34.3164Z" fill="white"/>
</svg>
