<svg width="100" height="100" viewBox="0 0 100 100" fill="none" xmlns="http://www.w3.org/2000/svg">
<path d="M49.9999 66.6668C52.3011 66.6668 54.1666 64.8013 54.1666 62.5002C54.1666 60.199 52.3011 58.3335 49.9999 58.3335C47.6987 58.3335 45.8333 60.199 45.8333 62.5002C45.8333 64.8013 47.6987 66.6668 49.9999 66.6668Z" fill="#F08A5D"/>
<path d="M70.8334 33.3334H66.6668V25.4584C66.6668 21.0381 64.9108 16.7989 61.7852 13.6733C58.6596 10.5477 54.4204 8.79175 50.0001 8.79175C45.5798 8.79175 41.3406 10.5477 38.215 13.6733C35.0894 16.7989 33.3334 21.0381 33.3334 25.4584V33.3334H29.1667C25.8515 33.3334 22.6721 34.6504 20.3279 36.9946C17.9837 39.3388 16.6667 42.5182 16.6667 45.8334V79.1667C16.6667 82.4819 17.9837 85.6614 20.3279 88.0056C22.6721 90.3498 25.8515 91.6667 29.1667 91.6667H70.8334C74.1486 91.6667 77.3281 90.3498 79.6723 88.0056C82.0165 85.6614 83.3334 82.4819 83.3334 79.1667V45.8334C83.3334 42.5182 82.0165 39.3388 79.6723 36.9946C77.3281 34.6504 74.1486 33.3334 70.8334 33.3334ZM41.6667 25.4584C41.6107 23.1888 42.4561 20.9895 44.0179 19.3417C45.5797 17.694 47.7307 16.7322 50.0001 16.6667C52.2694 16.7322 54.4204 17.694 55.9822 19.3417C57.5441 20.9895 58.3895 23.1888 58.3334 25.4584V33.3334H41.6667V25.4584ZM50.0001 75.0001C47.5278 75.0001 45.1111 74.267 43.0555 72.8935C40.9998 71.5199 39.3977 69.5677 38.4516 67.2836C37.5055 64.9995 37.258 62.4862 37.7403 60.0615C38.2226 57.6367 39.4131 55.4094 41.1612 53.6612C42.9094 51.9131 45.1367 50.7226 47.5615 50.2403C49.9862 49.7579 52.4996 50.0055 54.7836 50.9516C57.0677 51.8977 59.0199 53.4998 60.3935 55.5555C61.767 57.6111 62.5001 60.0278 62.5001 62.5001C62.5001 65.8153 61.1831 68.9947 58.8389 71.3389C56.4947 73.6831 53.3153 75.0001 50.0001 75.0001Z" fill="#F08A5D"/>
</svg>
