<svg width="50" height="78" viewBox="0 0 50 78" fill="none" xmlns="http://www.w3.org/2000/svg">
<path fill-rule="evenodd" clip-rule="evenodd" d="M46.621 6.69487L6.93143 0.457951C3.71085 -0.0481421 2.10055 -0.301189 1.05027 0.596931C0 1.49505 0 3.1251 0 6.38521V36.1582H23.3702L12.3339 22.3628L16.2382 19.2393L30.5239 37.0964L31.7733 38.6582L30.5239 40.2199L16.2382 58.077L12.3339 54.9536L23.3702 41.1582H0V70.9237C0 74.1838 0 75.8138 1.05027 76.712C2.10055 77.6101 3.71084 77.357 6.93143 76.8509L46.6209 70.614C48.2337 70.3606 49.0401 70.2339 49.52 69.6726C50 69.1113 50 68.295 50 66.6625V10.6464C50 9.01386 50 8.1976 49.52 7.63631C49.0401 7.07502 48.2337 6.9483 46.621 6.69487Z" fill="#F08A5D"/>
</svg>
