<svg width="50" height="50" viewBox="0 0 50 50" fill="none" xmlns="http://www.w3.org/2000/svg">
<path d="M25 0C20.0555 0 15.222 1.46622 11.1108 4.21326C6.99952 6.96029 3.79521 10.8648 1.90302 15.4329C0.0108321 20.0011 -0.484251 25.0277 0.480379 29.8772C1.44501 34.7268 3.82603 39.1813 7.32234 42.6777C10.8187 46.174 15.2732 48.555 20.1227 49.5196C24.9723 50.4842 29.9989 49.9892 34.5671 48.097C39.1352 46.2048 43.0397 43.0005 45.7867 38.8892C48.5338 34.778 50 29.9445 50 25C50 21.7169 49.3534 18.466 48.097 15.4329C46.8406 12.3998 44.9991 9.64379 42.6777 7.32233C40.3562 5.00086 37.6002 3.15938 34.5671 1.90301C31.534 0.646644 28.2831 0 25 0ZM25 40C24.5056 40 24.0222 39.8534 23.6111 39.5787C23.2 39.304 22.8795 38.9135 22.6903 38.4567C22.5011 37.9999 22.4516 37.4972 22.548 37.0123C22.6445 36.5273 22.8826 36.0819 23.2322 35.7322C23.5819 35.3826 24.0273 35.1445 24.5123 35.048C24.9972 34.9516 25.4999 35.0011 25.9567 35.1903C26.4135 35.3795 26.804 35.6999 27.0787 36.1111C27.3534 36.5222 27.5 37.0055 27.5 37.5C27.5 38.163 27.2366 38.7989 26.7678 39.2678C26.2989 39.7366 25.663 40 25 40ZM27.5 27.1V30C27.5 30.663 27.2366 31.2989 26.7678 31.7678C26.2989 32.2366 25.663 32.5 25 32.5C24.337 32.5 23.7011 32.2366 23.2322 31.7678C22.7634 31.2989 22.5 30.663 22.5 30V25C22.5 24.337 22.7634 23.7011 23.2322 23.2322C23.7011 22.7634 24.337 22.5 25 22.5C25.7417 22.5 26.4667 22.2801 27.0834 21.868C27.7001 21.4559 28.1807 20.8703 28.4646 20.1851C28.7484 19.4998 28.8226 18.7458 28.6779 18.0184C28.5333 17.291 28.1761 16.6228 27.6517 16.0983C27.1272 15.5739 26.459 15.2167 25.7316 15.0721C25.0042 14.9274 24.2502 15.0016 23.5649 15.2854C22.8797 15.5693 22.294 16.0499 21.882 16.6666C21.4699 17.2833 21.25 18.0083 21.25 18.75C21.25 19.413 20.9866 20.0489 20.5178 20.5178C20.0489 20.9866 19.413 21.25 18.75 21.25C18.087 21.25 17.4511 20.9866 16.9822 20.5178C16.5134 20.0489 16.25 19.413 16.25 18.75C16.2435 17.1257 16.6892 15.5317 17.5372 14.1464C18.3852 12.7611 19.6021 11.6392 21.0515 10.9063C22.501 10.1733 24.1259 9.85831 25.7443 9.99648C27.3627 10.1347 28.9106 10.7206 30.2149 11.6886C31.5192 12.6567 32.5282 13.9686 33.1291 15.4777C33.73 16.9867 33.899 18.6332 33.6172 20.2328C33.3355 21.8324 32.614 23.322 31.5336 24.5349C30.4532 25.7477 29.0566 26.6359 27.5 27.1Z" fill="white"/>
</svg>
