<svg width="185" height="24" viewBox="0 0 185 24" fill="none" xmlns="http://www.w3.org/2000/svg">
<path d="M131.701 20.976C130.655 19.9733 129.85 18.6987 129.285 17.152C128.73 15.6053 128.453 13.9467 128.453 12.176C128.453 10.3627 128.751 8.65067 129.349 7.04C129.957 5.42933 130.847 4.10133 132.021 3.056H133.909V3.232C132.682 4.36267 131.759 5.71733 131.141 7.296C130.522 8.87467 130.213 10.5013 130.213 12.176C130.213 13.7867 130.501 15.344 131.077 16.848C131.653 18.352 132.49 19.6693 133.589 20.8V20.976H131.701ZM135.064 8V6.336H138.392V18H136.552V8H135.064ZM141.874 18.112C141.543 18.112 141.266 18 141.042 17.776C140.818 17.552 140.706 17.2747 140.706 16.944C140.706 16.6133 140.818 16.336 141.042 16.112C141.266 15.888 141.543 15.776 141.874 15.776C142.194 15.776 142.466 15.888 142.69 16.112C142.914 16.336 143.026 16.6133 143.026 16.944C143.026 17.2747 142.914 17.552 142.69 17.776C142.466 18 142.194 18.112 141.874 18.112ZM152.277 7.904H146.917V11.088C147.141 10.7893 147.472 10.5387 147.909 10.336C148.357 10.1333 148.832 10.032 149.333 10.032C150.229 10.032 150.954 10.224 151.509 10.608C152.074 10.992 152.474 11.4773 152.709 12.064C152.954 12.6507 153.077 13.2693 153.077 13.92C153.077 14.7093 152.922 15.4133 152.613 16.032C152.314 16.64 151.861 17.12 151.253 17.472C150.656 17.824 149.92 18 149.045 18C147.882 18 146.949 17.712 146.245 17.136C145.541 16.56 145.12 15.7973 144.981 14.848H146.757C146.874 15.3493 147.136 15.7493 147.541 16.048C147.946 16.336 148.453 16.48 149.061 16.48C149.818 16.48 150.384 16.2507 150.757 15.792C151.141 15.3333 151.333 14.7253 151.333 13.968C151.333 13.2 151.141 12.6133 150.757 12.208C150.373 11.792 149.808 11.584 149.061 11.584C148.538 11.584 148.096 11.7173 147.733 11.984C147.381 12.24 147.125 12.592 146.965 13.04H145.237V6.304H152.277V7.904ZM154.944 9.216C155.008 8.224 155.386 7.45067 156.08 6.896C156.784 6.34133 157.68 6.064 158.768 6.064C159.514 6.064 160.16 6.19733 160.704 6.464C161.248 6.73067 161.658 7.09333 161.936 7.552C162.213 8.01067 162.352 8.528 162.352 9.104C162.352 9.76533 162.176 10.3307 161.824 10.8C161.472 11.2693 161.05 11.584 160.56 11.744V11.808C161.189 12 161.68 12.352 162.032 12.864C162.384 13.3653 162.56 14.0107 162.56 14.8C162.56 15.4293 162.416 15.9893 162.128 16.48C161.84 16.9707 161.413 17.36 160.848 17.648C160.282 17.9253 159.605 18.064 158.816 18.064C157.664 18.064 156.714 17.7707 155.968 17.184C155.232 16.5867 154.837 15.7333 154.784 14.624H156.544C156.586 15.1893 156.805 15.6533 157.2 16.016C157.594 16.368 158.128 16.544 158.8 16.544C159.45 16.544 159.952 16.368 160.304 16.016C160.656 15.6533 160.832 15.1893 160.832 14.624C160.832 13.8773 160.592 13.3493 160.112 13.04C159.642 12.72 158.917 12.56 157.936 12.56H157.52V11.056H157.952C158.816 11.0453 159.472 10.9013 159.92 10.624C160.378 10.3467 160.608 9.90933 160.608 9.312C160.608 8.8 160.442 8.39467 160.112 8.096C159.781 7.78667 159.312 7.632 158.704 7.632C158.106 7.632 157.642 7.78667 157.312 8.096C156.981 8.39467 156.784 8.768 156.72 9.216H154.944ZM164.252 15.568V14.192L169.628 6.48H171.836V13.984H173.324V15.568H171.836V18H170.044V15.568H164.252ZM170.124 8.336L166.348 13.984H170.124V8.336ZM174.627 20.976V20.8C175.726 19.6693 176.563 18.352 177.139 16.848C177.715 15.344 178.003 13.7867 178.003 12.176C178.003 10.5013 177.694 8.87467 177.075 7.296C176.456 5.71733 175.534 4.36267 174.307 3.232V3.056H176.195C177.368 4.10133 178.254 5.42933 178.851 7.04C179.459 8.65067 179.763 10.3627 179.763 12.176C179.763 13.9467 179.48 15.6053 178.915 17.152C178.36 18.6987 177.56 19.9733 176.515 20.976H174.627Z" fill="#656565"/>
<path d="M37.2656 7.90594L37.9967 9.66358L38.3485 10.5095L39.2618 10.5827L41.1593 10.7349L39.7136 11.9733L39.0178 12.5693L39.2304 13.4605L39.6721 15.3122L38.0475 14.3199L37.2656 13.8423L36.4837 14.3199L34.8592 15.3122L35.3009 13.4605L35.5135 12.5693L34.8177 11.9733L33.3719 10.7349L35.2695 10.5827L36.1827 10.5095L36.5346 9.66358L37.2656 7.90594Z" fill="#F1C644" stroke="#F1C644" stroke-width="3"/>
<path d="M55.2656 7.90594L55.9967 9.66358L56.3485 10.5095L57.2618 10.5827L59.1593 10.7349L57.7136 11.9733L57.0178 12.5693L57.2304 13.4605L57.6721 15.3122L56.0475 14.3199L55.2656 13.8423L54.4837 14.3199L52.8592 15.3122L53.3009 13.4605L53.5135 12.5693L52.8177 11.9733L51.3719 10.7349L53.2695 10.5827L54.1827 10.5095L54.5346 9.66358L55.2656 7.90594Z" fill="#F1C644" stroke="#F1C644" stroke-width="3"/>
<path d="M73.7656 7.71096L74.6419 9.69385L75.0051 10.5157L75.901 10.5833L77.9581 10.7385L76.462 11.9447L75.7131 12.5485L75.9494 13.481L76.4372 15.4056L74.5132 14.2996L73.7656 13.8698L73.018 14.2996L71.0941 15.4056L71.5819 13.481L71.8182 12.5485L71.0693 11.9447L69.5732 10.7385L71.6302 10.5833L72.5262 10.5157L72.8893 9.69385L73.7656 7.71096Z" fill="#F1C644" stroke="#F1C644" stroke-width="3"/>
<path d="M92.2656 7.90594L92.9967 9.66358L93.3485 10.5095L94.2618 10.5827L96.1593 10.7349L94.7136 11.9733L94.0178 12.5693L94.2304 13.4605L94.6721 15.3122L93.0475 14.3199L92.2656 13.8423L91.4837 14.3199L89.8592 15.3122L90.3009 13.4605L90.5135 12.5693L89.8177 11.9733L88.3719 10.7349L90.2695 10.5827L91.1827 10.5095L91.5346 9.66358L92.2656 7.90594Z" fill="#F1C644" stroke="#F1C644" stroke-width="3"/>
<path d="M110.266 4L112.382 9.08754L117.874 9.52786L113.689 13.1125L114.968 18.4721L110.266 15.6L105.563 18.4721L106.842 13.1125L102.657 9.52786L108.15 9.08754L110.266 4Z" fill="#D4D4D4"/>
<path d="M110.266 4L112.382 9.08754L117.874 9.52786L113.689 13.1125L114.968 18.4721L110.266 15.6L105.563 18.4721L106.842 13.1125L102.657 9.52786L108.15 9.08754L110.266 4Z" fill="url(#paint0_linear_606_840)"/>
<path d="M0.736 15.568V14.192L6.112 6.48H8.32V13.984H9.808V15.568H8.32V18H6.528V15.568H0.736ZM6.608 8.336L2.832 13.984H6.608V8.336ZM12.2954 18.112C11.9647 18.112 11.6874 18 11.4634 17.776C11.2394 17.552 11.1274 17.2747 11.1274 16.944C11.1274 16.6133 11.2394 16.336 11.4634 16.112C11.6874 15.888 11.9647 15.776 12.2954 15.776C12.6154 15.776 12.8874 15.888 13.1114 16.112C13.3354 16.336 13.4474 16.6133 13.4474 16.944C13.4474 17.2747 13.3354 17.552 13.1114 17.776C12.8874 18 12.6154 18.112 12.2954 18.112ZM22.6988 7.904H17.3388V11.088C17.5628 10.7893 17.8934 10.5387 18.3307 10.336C18.7788 10.1333 19.2534 10.032 19.7548 10.032C20.6508 10.032 21.3761 10.224 21.9308 10.608C22.4961 10.992 22.8961 11.4773 23.1308 12.064C23.3761 12.6507 23.4988 13.2693 23.4988 13.92C23.4988 14.7093 23.3441 15.4133 23.0347 16.032C22.7361 16.64 22.2828 17.12 21.6748 17.472C21.0774 17.824 20.3414 18 19.4668 18C18.3041 18 17.3708 17.712 16.6668 17.136C15.9628 16.56 15.5414 15.7973 15.4028 14.848H17.1788C17.2961 15.3493 17.5574 15.7493 17.9628 16.048C18.3681 16.336 18.8748 16.48 19.4828 16.48C20.2401 16.48 20.8054 16.2507 21.1788 15.792C21.5628 15.3333 21.7548 14.7253 21.7548 13.968C21.7548 13.2 21.5628 12.6133 21.1788 12.208C20.7948 11.792 20.2294 11.584 19.4828 11.584C18.9601 11.584 18.5174 11.7173 18.1548 11.984C17.8028 12.24 17.5468 12.592 17.3868 13.04H15.6588V6.304H22.6988V7.904Z" fill="#F1C644"/>
<defs>
<linearGradient id="paint0_linear_606_840" x1="102.266" y1="12" x2="118.266" y2="12" gradientUnits="userSpaceOnUse">
<stop stop-color="#F1C644"/>
<stop offset="0.5" stop-color="#F1C644"/>
<stop offset="0.5" stop-color="#F1C644" stop-opacity="0"/>
<stop offset="1" stop-color="#F1C644" stop-opacity="0"/>
</linearGradient>
</defs>
</svg>
