<svg width="109" height="20" viewBox="0 0 109 20" fill="none" xmlns="http://www.w3.org/2000/svg">
<path d="M10 4.8541L10.8186 7.37336L11.1553 8.40983H12.2451H14.894L12.751 9.96681L11.8694 10.6074L12.2061 11.6439L13.0247 14.1631L10.8817 12.6061L10 11.9656L9.11832 12.6061L6.97532 14.1631L7.79387 11.6439L8.13064 10.6074L7.24897 9.96681L5.10596 8.40983H7.75486H8.84467L9.18145 7.37336L10 4.8541Z" fill="#F1C644" stroke="#F1C644" stroke-width="3"/>
<path d="M32 4.8541L32.8186 7.37336L33.1553 8.40983H34.2451H36.894L34.751 9.96681L33.8694 10.6074L34.2061 11.6439L35.0247 14.1631L32.8817 12.6061L32 11.9656L31.1183 12.6061L28.9753 14.1631L29.7939 11.6439L30.1306 10.6074L29.249 9.96681L27.106 8.40983H29.7549H30.8447L31.1814 7.37336L32 4.8541Z" fill="#F1C644" stroke="#F1C644" stroke-width="3"/>
<path d="M54.5 4.64552L55.4377 7.39417L55.7843 8.40983H56.8574H59.6821L57.4608 9.94684L56.5287 10.5918L56.8947 11.6647L57.7825 14.2669L55.3535 12.5862L54.5 11.9956L53.6465 12.5862L51.2175 14.2669L52.1053 11.6647L52.4713 10.5918L51.5392 9.94684L49.3179 8.40983H52.1426H53.2157L53.5623 7.39417L54.5 4.64552Z" fill="#F1C644" stroke="#F1C644" stroke-width="3"/>
<path d="M77 4.8541L77.8186 7.37336L78.1553 8.40983H79.2451H81.894L79.751 9.96681L78.8694 10.6074L79.2061 11.6439L80.0247 14.1631L77.8817 12.6061L77 11.9656L76.1183 12.6061L73.9753 14.1631L74.7939 11.6439L75.1306 10.6074L74.249 9.96681L72.106 8.40983H74.7549H75.8447L76.1814 7.37336L77 4.8541Z" fill="#F1C644" stroke="#F1C644" stroke-width="3"/>
<path d="M99 4.8541L99.8186 7.37336L100.155 8.40983H101.245H103.894L101.751 9.96681L100.869 10.6074L101.206 11.6439L102.025 14.1631L99.8817 12.6061L99 11.9656L98.1183 12.6061L95.9753 14.1631L96.7939 11.6439L97.1306 10.6074L96.249 9.96681L94.106 8.40983H96.7549H97.8447L98.1814 7.37336L99 4.8541Z" fill="#F1C644" stroke="#F1C644" stroke-width="3"/>
</svg>
