<svg width="35" height="35" viewBox="0 0 35 35" fill="none" xmlns="http://www.w3.org/2000/svg">
<path d="M20.5968 4.71701L19.6018 4.81651L19.6018 4.81651L20.5968 4.71701ZM20.1828 3.17456L20.8538 2.43311L20.8538 2.43311L20.1828 3.17456ZM20.6533 5.28134L21.6483 5.18184L21.6483 5.18184L20.6533 5.28134ZM21.4511 7.96063L21.8338 7.03676L21.8338 7.03675L21.4511 7.96063ZM23.9098 6.63025L23.2766 5.8563L23.2766 5.8563L23.9098 6.63025ZM24.3488 6.27113L24.982 7.04509L24.982 7.04509L24.3488 6.27113ZM25.7322 5.47326L25.782 4.4745L25.782 4.4745L25.7322 5.47326ZM27.0294 6.40483L26.3223 7.11194L26.3223 7.11194L27.0294 6.40483ZM28.5945 7.96993L27.8874 8.67704L27.8874 8.67704L28.5945 7.96993ZM29.5261 9.26715L28.5274 9.31696L28.5274 9.31696L29.5261 9.26715ZM28.7282 10.6506L29.5022 11.2839L29.5022 11.2839L28.7282 10.6506ZM28.3691 11.0896L29.143 11.7228L29.143 11.7228L28.3691 11.0896ZM29.718 14.3461L29.6185 15.3412L29.6185 15.3412L29.718 14.3461ZM30.2824 14.4026L30.3819 13.4075L30.3819 13.4075L30.2824 14.4026ZM31.8249 14.8167L31.0834 15.4877L31.0834 15.4877L31.8249 14.8167ZM31.8249 20.182L31.0834 19.511L31.0834 19.511L31.8249 20.182ZM30.2824 20.5961L30.3819 21.5912L30.3819 21.5912L30.2824 20.5961ZM29.7185 20.6525L29.619 19.6575L29.619 19.6575L29.7185 20.6525ZM27.0393 21.4503L27.9631 21.833L27.9631 21.833L27.0393 21.4503ZM28.3696 23.9091L29.1436 23.2758L29.1436 23.2758L28.3696 23.9091ZM28.7283 24.3474L29.5023 23.7142L29.5023 23.7142L28.7283 24.3474ZM29.5262 25.7309L28.5274 25.6811L28.5274 25.6811L29.5262 25.7309ZM28.5946 27.0281L27.8875 26.321L27.8875 26.321L28.5946 27.0281ZM27.0295 28.5932L27.7366 29.3003L27.7366 29.3003L27.0295 28.5932ZM25.7323 29.5248L25.7821 30.5236L25.7821 30.5236L25.7323 29.5248ZM24.3488 28.7269L24.9821 27.953L24.9821 27.953L24.3488 28.7269ZM23.9099 28.3678L23.2767 29.1418L23.2767 29.1418L23.9099 28.3678ZM21.4512 27.0374L21.8339 27.9613L21.8339 27.9613L21.4512 27.0374ZM20.6533 29.7167L21.6484 29.8162L21.6484 29.8162L20.6533 29.7167ZM20.5968 30.2817L19.6018 30.1822L19.6018 30.1822L20.5968 30.2817ZM20.1828 31.8241L19.5118 31.0827L19.5118 31.0827L20.1828 31.8241ZM14.8174 31.8241L15.4884 31.0827L15.4884 31.0827L14.8174 31.8241ZM14.4033 30.2817L15.3984 30.1822L15.3984 30.1822L14.4033 30.2817ZM14.3469 29.7173L13.3518 29.8168L13.3518 29.8168L14.3469 29.7173ZM11.0903 28.3684L11.7236 29.1423L11.7236 29.1423L11.0903 28.3684ZM10.6513 28.7276L10.018 27.9536L10.018 27.9536L10.6513 28.7276ZM9.26781 29.5255L9.31763 28.5267L9.31763 28.5267L9.26781 29.5255ZM7.9706 28.5939L8.6777 27.8868L8.6777 27.8868L7.9706 28.5939ZM6.4055 27.0288L5.69839 27.7359L5.69839 27.7359L6.4055 27.0288ZM5.47392 25.7316L4.47517 25.7814L4.47517 25.7814L5.47392 25.7316ZM6.2718 24.3481L7.04575 24.9813L7.04575 24.9813L6.2718 24.3481ZM6.63098 23.9091L7.40493 24.5423L7.40493 24.5423L6.63098 23.9091ZM7.96136 21.4504L8.88524 21.0677L8.88524 21.0677L7.96136 21.4504ZM5.28207 20.6525L5.18256 21.6476L5.18256 21.6476L5.28207 20.6525ZM4.71774 20.5961L4.61824 21.5912L4.61824 21.5912L4.71774 20.5961ZM3.1753 20.182L2.43384 20.853L2.43384 20.853L3.1753 20.182ZM3.1753 14.8167L2.43384 14.1457L2.43384 14.1457L3.1753 14.8167ZM4.71774 14.4026L4.61824 13.4075L4.61824 13.4075L4.71774 14.4026ZM5.28262 14.3461L5.38212 15.3411L5.38212 15.3411L5.28262 14.3461ZM7.96191 13.5482L8.88579 13.9309L8.88579 13.9309L7.96191 13.5482ZM6.63152 11.0895L7.40548 10.4563L7.40548 10.4563L6.63152 11.0895ZM6.27186 10.65L5.49791 11.2832L5.49791 11.2832L6.27186 10.65ZM5.47399 9.26649L6.47275 9.3163L6.47275 9.3163L5.47399 9.26649ZM7.97066 6.40417L8.67777 7.11128L8.67777 7.11128L7.97066 6.40417ZM10.6514 6.27047L10.0181 7.04443L10.0181 7.04443L10.6514 6.27047ZM11.0904 6.62968L11.7236 5.85572L11.7236 5.85572L11.0904 6.62968ZM14.3469 5.28077L13.3519 5.18127L13.3519 5.18127L14.3469 5.28077ZM14.4033 4.71701L15.3984 4.81651L15.3984 4.81651L14.4033 4.71701ZM14.8174 3.17456L14.1464 2.43311L14.1464 2.43311L14.8174 3.17456ZM21.5919 4.61751C21.5517 4.21614 21.514 3.81951 21.439 3.49589C21.3575 3.14446 21.2062 2.75207 20.8538 2.43311L19.5118 3.91601C19.445 3.8556 19.458 3.80647 19.4907 3.94764C19.5299 4.11662 19.5564 4.36194 19.6018 4.81651L21.5919 4.61751ZM21.6483 5.18184L21.5919 4.6175L19.6018 4.81651L19.6582 5.38085L21.6483 5.18184ZM21.8338 7.03675C22.0077 7.10878 21.9632 7.25039 21.8759 6.90372C21.7884 6.55564 21.7334 6.03241 21.6483 5.18184L19.6582 5.38085C19.7365 6.16381 19.8041 6.86574 19.9364 7.39167C20.069 7.91902 20.3417 8.5835 21.0684 8.88451L21.8338 7.03675ZM23.2766 5.8563C22.615 6.3976 22.2061 6.72869 21.8981 6.9129C21.5913 7.09636 21.6599 6.96473 21.8338 7.03676L21.0684 8.88451C21.7951 9.18552 22.4578 8.90849 22.9245 8.62941C23.39 8.35108 23.9341 7.90249 24.5431 7.40421L23.2766 5.8563ZM23.7155 5.49717L23.2766 5.8563L24.5431 7.40421L24.982 7.04509L23.7155 5.49717ZM25.782 4.4745C25.3073 4.45082 24.9228 4.6213 24.6167 4.81218C24.3348 4.98796 24.0277 5.24175 23.7155 5.49718L24.982 7.04509C25.3356 6.7558 25.5278 6.60106 25.675 6.50928C25.7979 6.43261 25.7723 6.4765 25.6824 6.47202L25.782 4.4745ZM27.7366 5.69773C27.4513 5.4125 27.171 5.12941 26.908 4.92646C26.6224 4.70606 26.2568 4.49818 25.782 4.4745L25.6824 6.47202C25.5925 6.46753 25.5714 6.42131 25.6861 6.50984C25.8235 6.61581 25.9993 6.78891 26.3223 7.11194L27.7366 5.69773ZM29.3016 7.26282L27.7366 5.69773L26.3223 7.11194L27.8874 8.67704L29.3016 7.26282ZM30.5249 9.21733C30.5012 8.74258 30.2933 8.37701 30.0729 8.0914C29.87 7.82839 29.5869 7.54805 29.3016 7.26282L27.8874 8.67704C28.2105 9.00007 28.3836 9.17591 28.4895 9.31324C28.5781 9.42797 28.5318 9.40688 28.5274 9.31696L30.5249 9.21733ZM29.5022 11.2839C29.7576 10.9717 30.0114 10.6645 30.1872 10.3827C30.3781 10.0765 30.5486 9.69209 30.5249 9.21733L28.5274 9.31696C28.5229 9.22704 28.5668 9.20146 28.4901 9.32442C28.3983 9.47162 28.2436 9.66381 27.9543 10.0174L29.5022 11.2839ZM29.143 11.7228L29.5022 11.2839L27.9543 10.0174L27.5951 10.4564L29.143 11.7228ZM27.9626 13.1656C28.0346 13.3395 27.903 13.4081 28.0864 13.1013C28.2707 12.7933 28.6017 12.3844 29.143 11.7228L27.5951 10.4564C27.0969 11.0654 26.6483 11.6094 26.3699 12.0749C26.0909 12.5416 25.8138 13.2043 26.1148 13.931L27.9626 13.1656ZM29.8175 13.3511C28.9669 13.266 28.4437 13.2111 28.0956 13.1235C27.7489 13.0363 27.8906 12.9917 27.9626 13.1656L26.1148 13.931C26.4158 14.6577 27.0803 14.9304 27.6077 15.063C28.1336 15.1954 28.8355 15.2629 29.6185 15.3412L29.8175 13.3511ZM30.3819 13.4075L29.8175 13.3511L29.6185 15.3412L30.1829 15.3976L30.3819 13.4075ZM32.5663 14.1457C32.2474 13.7932 31.855 13.6419 31.5035 13.5604C31.1799 13.4854 30.7833 13.4477 30.3819 13.4075L30.1829 15.3976C30.6375 15.4431 30.8828 15.4696 31.0518 15.5087C31.193 15.5415 31.1438 15.5544 31.0834 15.4877L32.5663 14.1457ZM33.0834 16.3927C33.0834 15.9893 33.0854 15.5909 33.0429 15.2614C32.9968 14.9036 32.8853 14.4981 32.5663 14.1457L31.0834 15.4877C31.023 15.4209 31.0408 15.3733 31.0593 15.517C31.0815 15.6891 31.0834 15.9358 31.0834 16.3927H33.0834ZM33.0834 18.606V16.3927H31.0834V18.606H33.0834ZM32.5663 20.853C32.8853 20.5006 32.9968 20.0951 33.0429 19.7373C33.0854 19.4078 33.0834 19.0094 33.0834 18.606H31.0834C31.0834 19.0629 31.0815 19.3096 31.0593 19.4817C31.0408 19.6254 31.023 19.5778 31.0834 19.511L32.5663 20.853ZM30.3819 21.5912C30.7833 21.551 31.1799 21.5133 31.5035 21.4383C31.855 21.3568 32.2474 21.2055 32.5663 20.853L31.0834 19.511C31.1438 19.4443 31.193 19.4572 31.0518 19.49C30.8828 19.5291 30.6375 19.5556 30.1829 19.6011L30.3819 21.5912ZM29.818 21.6475L30.3819 21.5912L30.1829 19.6011L29.619 19.6575L29.818 21.6475ZM27.9631 21.833C27.8911 22.0069 27.7495 21.9624 28.0962 21.8752C28.4443 21.7876 28.9675 21.7326 29.818 21.6475L29.619 19.6575C28.8361 19.7358 28.1342 19.8033 27.6082 19.9356C27.0809 20.0683 26.4164 20.341 26.1154 21.0677L27.9631 21.833ZM29.1436 23.2758C28.6023 22.6142 28.2712 22.2054 28.087 21.8973C27.9035 21.5905 28.0352 21.6591 27.9631 21.833L26.1154 21.0677C25.8144 21.7944 26.0914 22.4571 26.3705 22.9238C26.6488 23.3892 27.0974 23.9333 27.5957 24.5423L29.1436 23.2758ZM29.5023 23.7142L29.1436 23.2758L27.5957 24.5423L27.9544 24.9807L29.5023 23.7142ZM30.5249 25.7807C30.5486 25.306 30.3781 24.9215 30.1873 24.6154C30.0115 24.3335 29.7577 24.0264 29.5023 23.7142L27.9544 24.9807C28.2436 25.3342 28.3984 25.5264 28.4902 25.6736C28.5668 25.7966 28.5229 25.771 28.5274 25.6811L30.5249 25.7807ZM29.3017 27.7352C29.5869 27.45 29.87 27.1697 30.073 26.9067C30.2934 26.621 30.5013 26.2555 30.5249 25.7807L28.5274 25.6811C28.5319 25.5912 28.5781 25.5701 28.4896 25.6848C28.3836 25.8221 28.2105 25.998 27.8875 26.321L29.3017 27.7352ZM27.7366 29.3003L29.3017 27.7352L27.8875 26.321L26.3224 27.8861L27.7366 29.3003ZM25.7821 30.5236C26.2569 30.4999 26.6224 30.292 26.908 30.0716C27.1711 29.8686 27.4514 29.5855 27.7366 29.3003L26.3224 27.8861C25.9994 28.2091 25.8235 28.3822 25.6862 28.4882C25.5715 28.5767 25.5926 28.5305 25.6825 28.526L25.7821 30.5236ZM23.7156 29.5009C24.0278 29.7563 24.3349 30.0101 24.6168 30.1859C24.9229 30.3768 25.3074 30.5472 25.7821 30.5236L25.6825 28.526C25.7724 28.5216 25.798 28.5654 25.675 28.4888C25.5278 28.397 25.3356 28.2422 24.9821 27.953L23.7156 29.5009ZM23.2767 29.1418L23.7156 29.5009L24.9821 27.953L24.5431 27.5938L23.2767 29.1418ZM21.8339 27.9613C21.66 28.0333 21.5913 27.9017 21.8982 28.0852C22.2062 28.2694 22.6151 28.6005 23.2767 29.1418L24.5431 27.5938C23.9341 27.0956 23.39 26.647 22.9246 26.3686C22.4579 26.0896 21.7952 25.8125 21.0685 26.1135L21.8339 27.9613ZM21.6484 29.8162C21.7334 28.9656 21.7884 28.4424 21.876 28.0943C21.9632 27.7477 22.0078 27.8893 21.8339 27.9613L21.0685 26.1135C20.3418 26.4145 20.0691 27.079 19.9364 27.6064C19.8041 28.1323 19.7366 28.8342 19.6583 29.6172L21.6484 29.8162ZM21.5919 30.3812L21.6484 29.8162L19.6583 29.6172L19.6018 30.1822L21.5919 30.3812ZM20.8538 32.5656C21.2062 32.2466 21.3575 31.8542 21.439 31.5028C21.514 31.1792 21.5517 30.7826 21.5919 30.3812L19.6018 30.1822C19.5564 30.6368 19.5299 30.8821 19.4907 31.0511C19.458 31.1922 19.445 31.1431 19.5118 31.0827L20.8538 32.5656ZM18.6068 33.0827C19.0101 33.0827 19.4085 33.0846 19.738 33.0422C20.0958 32.996 20.5013 32.8845 20.8538 32.5656L19.5118 31.0827C19.5785 31.0223 19.6261 31.04 19.4824 31.0586C19.3103 31.0807 19.0636 31.0827 18.6068 31.0827V33.0827ZM16.3934 33.0827H18.6068V31.0827H16.3934V33.0827ZM14.1464 32.5656C14.4988 32.8845 14.9043 32.996 15.2621 33.0422C15.5916 33.0846 15.99 33.0827 16.3934 33.0827V31.0827C15.9366 31.0827 15.6898 31.0807 15.5178 31.0586C15.3741 31.04 15.4216 31.0223 15.4884 31.0827L14.1464 32.5656ZM13.4083 30.3812C13.4484 30.7826 13.4861 31.1792 13.5612 31.5028C13.6426 31.8542 13.7939 32.2466 14.1464 32.5656L15.4884 31.0827C15.5552 31.1431 15.5422 31.1922 15.5095 31.0511C15.4703 30.8821 15.4438 30.6368 15.3984 30.1822L13.4083 30.3812ZM13.3518 29.8168L13.4083 30.3812L15.3984 30.1822L15.3419 29.6178L13.3518 29.8168ZM13.1663 27.9619C12.9925 27.8898 13.037 27.7482 13.1242 28.0949C13.2118 28.443 13.2668 28.9662 13.3518 29.8168L15.3419 29.6178C15.2636 28.8348 15.1961 28.1329 15.0638 27.6069C14.9311 27.0796 14.6584 26.4151 13.9317 26.1141L13.1663 27.9619ZM11.7236 29.1423C12.3852 28.601 12.794 28.2699 13.1021 28.0857C13.4089 27.9023 13.3402 28.0339 13.1663 27.9619L13.9317 26.1141C13.205 25.8131 12.5423 26.0901 12.0756 26.3692C11.6102 26.6475 11.0661 27.0961 10.4571 27.5944L11.7236 29.1423ZM11.2845 29.5015L11.7236 29.1423L10.4571 27.5944L10.018 27.9536L11.2845 29.5015ZM9.218 30.5242C9.69275 30.5479 10.0772 30.3774 10.3833 30.1865C10.6652 30.0108 10.9723 29.757 11.2845 29.5015L10.018 27.9536C9.66448 28.2429 9.47228 28.3976 9.32509 28.4894C9.20212 28.5661 9.2277 28.5222 9.31763 28.5267L9.218 30.5242ZM7.26349 29.301C7.54871 29.5862 7.82906 29.8693 8.09207 30.0723C8.37767 30.2926 8.74324 30.5005 9.218 30.5242L9.31763 28.5267C9.40755 28.5312 9.42863 28.5774 9.31391 28.4889C9.17658 28.3829 9.00073 28.2098 8.6777 27.8868L7.26349 29.301ZM5.69839 27.7359L7.26349 29.301L8.6777 27.8868L7.11261 26.3217L5.69839 27.7359ZM4.47517 25.7814C4.49884 26.2561 4.70673 26.6217 4.92712 26.9073C5.13008 27.1703 5.41317 27.4507 5.69839 27.7359L7.11261 26.3217C6.78957 25.9986 6.61648 25.8228 6.51051 25.6855C6.42197 25.5707 6.4682 25.5918 6.47268 25.6818L4.47517 25.7814ZM5.49784 23.7149C5.24241 24.027 4.98862 24.3342 4.81284 24.6161C4.62196 24.9222 4.45149 25.3066 4.47517 25.7814L6.47268 25.6818C6.47717 25.7717 6.43327 25.7973 6.50995 25.6743C6.60173 25.5271 6.75647 25.3349 7.04575 24.9813L5.49784 23.7149ZM5.85702 23.2759L5.49784 23.7149L7.04575 24.9813L7.40493 24.5423L5.85702 23.2759ZM7.03748 21.8331C6.96545 21.6592 7.09708 21.5906 6.91362 21.8974C6.72941 22.2054 6.39832 22.6143 5.85702 23.2759L7.40493 24.5423C7.90321 23.9333 8.3518 23.3892 8.63013 22.9238C8.90921 22.4571 9.18625 21.7944 8.88524 21.0677L7.03748 21.8331ZM5.18256 21.6476C6.03314 21.7326 6.55636 21.7876 6.90445 21.8752C7.25112 21.9624 7.1095 22.007 7.03748 21.8331L8.88524 21.0677C8.58423 20.341 7.91974 20.0683 7.39239 19.9356C6.86646 19.8033 6.16454 19.7358 5.38157 19.6575L5.18256 21.6476ZM4.61824 21.5912L5.18256 21.6476L5.38157 19.6575L4.81725 19.6011L4.61824 21.5912ZM2.43384 20.853C2.75281 21.2055 3.14519 21.3568 3.49662 21.4383C3.82025 21.5133 4.21687 21.551 4.61824 21.5912L4.81725 19.6011C4.36268 19.5556 4.11736 19.5291 3.94838 19.49C3.80721 19.4572 3.85633 19.4443 3.91675 19.511L2.43384 20.853ZM1.91675 18.606C1.91675 19.0094 1.91481 19.4078 1.95727 19.7373C2.00338 20.0951 2.11488 20.5006 2.43384 20.853L3.91675 19.511C3.97716 19.5778 3.95939 19.6254 3.94086 19.4817C3.91869 19.3096 3.91675 19.0629 3.91675 18.606H1.91675ZM1.91675 16.3927V18.606H3.91675V16.3927H1.91675ZM2.43384 14.1457C2.11488 14.4981 2.00338 14.9036 1.95727 15.2614C1.91481 15.5909 1.91675 15.9893 1.91675 16.3927H3.91675C3.91675 15.9358 3.91869 15.6891 3.94086 15.517C3.95939 15.3733 3.97716 15.4209 3.91675 15.4877L2.43384 14.1457ZM4.61824 13.4075C4.21687 13.4477 3.82025 13.4854 3.49662 13.5604C3.14519 13.6419 2.7528 13.7932 2.43384 14.1457L3.91675 15.4877C3.85633 15.5544 3.80721 15.5415 3.94838 15.5087C4.11736 15.4696 4.36268 15.4431 4.81724 15.3976L4.61824 13.4075ZM5.18312 13.3511L4.61824 13.4075L4.81724 15.3976L5.38212 15.3411L5.18312 13.3511ZM7.03803 13.1656C7.11005 12.9917 7.25167 13.0362 6.905 13.1234C6.55691 13.211 6.03369 13.266 5.18311 13.3511L5.38212 15.3411C6.16509 15.2628 6.86701 15.1953 7.39294 15.063C7.92029 14.9303 8.58478 14.6576 8.88579 13.9309L7.03803 13.1656ZM5.85757 11.7228C6.39887 12.3844 6.72996 12.7932 6.91417 13.1013C7.09763 13.4081 6.966 13.3395 7.03803 13.1656L8.88579 13.9309C9.1868 13.2042 8.90976 12.5415 8.63068 12.0748C8.35235 11.6094 7.90376 11.0653 7.40548 10.4563L5.85757 11.7228ZM5.49791 11.2832L5.85757 11.7228L7.40548 10.4563L7.04582 10.0167L5.49791 11.2832ZM4.47523 9.21667C4.45155 9.69143 4.62203 10.0759 4.81291 10.382C4.98869 10.6639 5.24248 10.971 5.49791 11.2832L7.04582 10.0167C6.75654 9.66315 6.6018 9.47096 6.51002 9.32376C6.43334 9.2008 6.47724 9.22638 6.47275 9.3163L4.47523 9.21667ZM5.69846 7.26216C5.41324 7.54739 5.13014 7.82773 4.92719 8.09074C4.7068 8.37635 4.49891 8.74192 4.47523 9.21667L6.47275 9.3163C6.46827 9.40622 6.42204 9.42731 6.51057 9.31258C6.61654 9.17525 6.78964 8.99941 7.11267 8.67638L5.69846 7.26216ZM7.26356 5.69707L5.69846 7.26216L7.11267 8.67638L8.67777 7.11128L7.26356 5.69707ZM9.21807 4.47384C8.74331 4.49752 8.37774 4.7054 8.09213 4.9258C7.82913 5.12875 7.54878 5.41184 7.26356 5.69707L8.67777 7.11128C9.0008 6.78825 9.17665 6.61515 9.31398 6.50918C9.4287 6.42065 9.40762 6.46687 9.31769 6.47136L9.21807 4.47384ZM11.2846 5.49651C10.9724 5.24109 10.6653 4.9873 10.3834 4.81152C10.0773 4.62064 9.69282 4.45016 9.21807 4.47384L9.31769 6.47136C9.22777 6.47584 9.20219 6.43195 9.32516 6.50862C9.47235 6.6004 9.66454 6.75514 10.0181 7.04443L11.2846 5.49651ZM11.7236 5.85572L11.2846 5.49651L10.0181 7.04443L10.4572 7.40364L11.7236 5.85572ZM13.1664 7.03618C13.3403 6.96416 13.4089 7.09579 13.1021 6.91233C12.7941 6.72812 12.3852 6.39703 11.7236 5.85572L10.4572 7.40364C11.0662 7.90191 11.6102 8.35051 12.0757 8.62884C12.5424 8.90792 13.2051 9.18495 13.9318 8.88394L13.1664 7.03618ZM13.3519 5.18127C13.2668 6.03184 13.2119 6.55507 13.1243 6.90315C13.0371 7.24982 12.9925 7.10821 13.1664 7.03618L13.9318 8.88394C14.6585 8.58293 14.9312 7.91845 15.0638 7.3911C15.1962 6.86517 15.2637 6.16324 15.342 5.38028L13.3519 5.18127ZM13.4083 4.6175L13.3519 5.18127L15.342 5.38028L15.3984 4.81651L13.4083 4.6175ZM14.1464 2.43311C13.7939 2.75207 13.6426 3.14446 13.5612 3.49589C13.4861 3.81951 13.4484 4.21614 13.4083 4.6175L15.3984 4.81651C15.4438 4.36194 15.4703 4.11662 15.5095 3.94764C15.5422 3.80647 15.5552 3.8556 15.4884 3.91602L14.1464 2.43311ZM16.3934 1.91602C15.99 1.91602 15.5916 1.91407 15.2621 1.95654C14.9043 2.00265 14.4988 2.11415 14.1464 2.43311L15.4884 3.91602C15.4216 3.97643 15.3741 3.95865 15.5178 3.94013C15.6898 3.91796 15.9366 3.91602 16.3934 3.91602V1.91602ZM18.6068 1.91602H16.3934V3.91602H18.6068V1.91602ZM20.8538 2.43311C20.5013 2.11415 20.0958 2.00265 19.738 1.95654C19.4085 1.91407 19.0101 1.91602 18.6068 1.91602V3.91602C19.0636 3.91602 19.3103 3.91796 19.4824 3.94013C19.6261 3.95865 19.5785 3.97643 19.5118 3.91602L20.8538 2.43311ZM22.3334 17.4993C22.3334 20.1687 20.1695 22.3327 17.5001 22.3327V24.3327C21.274 24.3327 24.3334 21.2733 24.3334 17.4993H22.3334ZM17.5001 12.666C20.1695 12.666 22.3334 14.83 22.3334 17.4993H24.3334C24.3334 13.7254 21.274 10.666 17.5001 10.666V12.666ZM12.6667 17.4993C12.6667 14.83 14.8307 12.666 17.5001 12.666V10.666C13.7261 10.666 10.6667 13.7254 10.6667 17.4993H12.6667ZM17.5001 22.3327C14.8307 22.3327 12.6667 20.1687 12.6667 17.4993H10.6667C10.6667 21.2733 13.7261 24.3327 17.5001 24.3327V22.3327Z" fill="#401A43"/>
</svg>
