<svg width="70" height="70" viewBox="0 0 70 70" fill="none" xmlns="http://www.w3.org/2000/svg">
<path d="M52.2266 0.205055C51.8164 0.300758 42 3.13084 30.4199 6.48044C15.5723 10.7871 9.07812 12.7285 8.38086 13.0703C5.75586 14.3418 4.0332 17.4316 4.2793 20.3574C4.32031 20.8906 4.85352 22.9551 5.56445 25.3613L6.76758 29.4629L6.83594 46.6894C6.91797 65.5429 6.84961 64.2031 7.76562 65.9668C8.79102 67.9219 10.9512 69.4941 13.084 69.8496C13.7266 69.959 16.666 70 22.7227 69.9726L31.4453 69.9316L31.8008 69.5625C32.3066 69.0566 32.3066 68.209 31.8008 67.7031L31.4453 67.334L22.3809 67.2656C12.7422 67.1836 13.002 67.2109 11.8945 66.5136C10.8691 65.8574 10.1445 64.9004 9.78906 63.7109C9.59766 63.0683 9.57031 61.7422 9.57031 53.3613V43.75L36.3398 43.7773L63.0957 43.8183L63.1367 52.9101C63.1504 58.0097 63.1094 62.4121 63.041 62.9316C62.7949 64.6679 61.8652 65.9941 60.3203 66.7461L59.4043 67.1972L50.3809 67.2656C45.418 67.3066 41.248 67.3886 41.125 67.4433C40.7559 67.6347 40.4688 68.1679 40.4688 68.6738C40.4688 69.207 40.9336 69.8086 41.4531 69.9316C41.6172 69.9726 45.8281 69.9863 50.791 69.9726C59.7598 69.9316 59.8145 69.9316 60.6211 69.6172C61.7559 69.1933 62.5625 68.6875 63.4238 67.8945C64.3672 67.0058 64.9824 66.0488 65.4473 64.709L65.8301 63.6426V46.375V29.0937L65.3789 28.6972L64.9414 28.3008H41.4668C28.5605 28.3008 18.0332 28.2734 18.0605 28.2324C18.1016 28.2051 28.2188 25.2519 40.5508 21.6836C64.9961 14.6015 63.5742 15.0664 63.5742 14.041C63.5742 13.3164 61.168 5.22263 60.6348 4.14256C59.1719 1.17576 55.4258 -0.574242 52.2266 0.205055ZM55.877 3.1992C56.793 3.60935 57.791 4.53904 58.2285 5.40037C58.4609 5.86521 60.3203 11.9902 60.457 12.7695C60.498 13.0019 60.1836 13.125 57.791 13.8359L55.0703 14.6152L53.2109 12.8105C52.1855 11.7988 49.9707 9.66599 48.2891 8.06638C46.6211 6.4531 45.2949 5.09959 45.3496 5.05857C45.4453 4.97654 51.3379 3.25388 52.8418 2.8574C53.6211 2.65232 54.9883 2.80271 55.877 3.1992ZM47.0449 10.664C49.6973 13.207 51.8984 15.3535 51.9258 15.4218C51.9395 15.4765 50.3398 15.9961 48.3711 16.5703L44.7754 17.5957L42.998 15.8593C42.0273 14.916 39.8262 12.7832 38.1172 11.1426C36.3945 9.50193 35 8.12107 35 8.08005C35 7.98435 41.6309 6.04294 41.9863 6.02927C42.1094 6.0156 44.3789 8.1074 47.0449 10.664ZM37.5703 14.4238C39.8398 16.5976 41.6445 18.416 41.5898 18.4707C41.4805 18.5801 34.8359 20.5078 34.5898 20.5078C34.5078 20.5078 32.2246 18.375 29.5176 15.7636L24.5957 11.0195L28.1914 9.98044L31.7871 8.94138L32.6211 9.69333C33.0723 10.1172 35.3008 12.2363 37.5703 14.4238ZM26.5234 16.6797C29.6406 19.6601 31.377 21.4238 31.2676 21.4785C31.1855 21.5332 29.5586 22.0117 27.6582 22.5586L24.2129 23.5566L19.2773 18.7851C16.2832 15.914 14.3965 14 14.5059 13.959C15.2715 13.6992 21.4238 11.9218 21.4922 11.9492C21.5469 11.9492 23.8164 14.082 26.5234 16.6797ZM16.2559 19.6875C18.9629 22.2715 21.1641 24.4043 21.1504 24.4316C21 24.5683 9.22852 27.8633 9.14648 27.7949C9.0918 27.7265 8.59961 26.1406 8.05273 24.2676C7.17773 21.2871 7.05469 20.7129 7.05469 19.7558C7.05469 18.8672 7.12305 18.5254 7.39648 17.9101C7.7793 17.0761 8.4082 16.2968 9.06445 15.832C9.55664 15.4765 10.9375 14.8886 11.1699 14.9433C11.2656 14.957 13.5488 17.0898 16.2559 19.6875ZM21.4648 31.1308C21.4648 31.1718 20.1934 33.414 18.6348 36.1211L15.8047 41.0156H12.6875H9.57031V36.0254V31.0351H15.5176C18.7852 31.0351 21.4648 31.0761 21.4648 31.1308ZM32.2246 31.1308C32.1836 31.1992 30.9121 33.3867 29.3945 36.0254C27.877 38.6504 26.5918 40.8515 26.5371 40.9199C26.4824 40.9746 24.7598 41.0019 22.7227 40.9883L19.0039 40.9472L21.6836 36.2988C23.1602 33.7422 24.4453 31.5136 24.5547 31.3359C24.7461 31.0351 24.7598 31.0351 28.5195 31.0351C30.584 31.0351 32.252 31.0761 32.2246 31.1308ZM42.9023 31.1582C42.8887 31.2129 41.6035 33.4687 40.0586 36.1347L37.2559 41.0019L33.4414 41.0156H29.6406L29.832 40.7011C29.9414 40.5371 31.2539 38.2949 32.7305 35.7109L35.4375 31.0351H39.1973C41.2617 31.0351 42.9297 31.0898 42.9023 31.1582ZM50.832 36.0254L47.9473 41.0156H44.2012C41.8496 41.0156 40.4688 40.9609 40.4961 40.8789C40.5234 40.8105 41.7949 38.5683 43.3398 35.9023L46.1426 31.0351H49.9297H53.7031L50.832 36.0254ZM63.1641 36.0254V41.0156H57.1348C53.8262 41.0156 51.1465 40.9746 51.1738 40.9062C51.4883 40.3457 56.5469 31.5683 56.6836 31.3359C56.875 31.0351 56.916 31.0351 60.0195 31.0351H63.1641V36.0254Z" fill="white"/>
<path d="M31.8555 47.2773C31.5957 47.4004 31.3086 47.6601 31.2129 47.8515C31.0762 48.1113 31.0352 49.9297 31.0352 55.4668V62.7539L31.4316 63.1914C32.1836 64.039 32.1562 64.0527 39.1426 60.0195C43.8184 57.3125 45.459 56.3008 45.6094 56.0273C45.8965 55.4668 45.8418 55.0156 45.4316 54.5644C45.0352 54.1269 33.25 47.2773 32.6621 47.1269C32.457 47.0722 32.1289 47.1269 31.8555 47.2773ZM38.5957 53.5937C40.2227 54.5371 41.5488 55.3437 41.5215 55.3984C41.4941 55.4941 33.9609 59.8828 33.8379 59.8828C33.7969 59.8828 33.7695 57.8457 33.7695 55.3574V50.832L34.6992 51.3652C35.2188 51.6523 36.9688 52.6504 38.5957 53.5937Z" fill="white"/>
<path d="M35.7519 67.416C34.4121 68.1953 35.0684 70.2187 36.5586 69.9453C38.0351 69.6719 37.9805 67.5391 36.4902 67.3203C36.2441 67.293 35.9023 67.334 35.7519 67.416Z" fill="white"/>
</svg>
