<svg width="250" height="91" viewBox="0 0 250 91" fill="none" xmlns="http://www.w3.org/2000/svg">
<path d="M12.4226 35.6279C18.8638 67.6328 36.9395 115.459 57.7124 50.7245" stroke="#F08A5D" stroke-width="5.5" stroke-linecap="round"/>
<path d="M5.28966 48.4281L4.67594 47.6384L22.7504 28.9332L26.538 33.5442L5.28966 48.4281Z" fill="#F08A5D" stroke="#F08A5D"/>
<path d="M31.6051 32.4846L27.6213 34.9745L21.5158 27.7589L24.5156 23.7591L31.6051 32.4846Z" fill="#F08A5D" stroke="#F08A5D"/>
<path d="M29.3308 65.8214C28.7269 64.6136 19.0651 38.6474 29.3308 45.8938" stroke="#F08A5D" stroke-width="5.5" stroke-linecap="round"/>
<path d="M29.3308 45.8937C30.9411 47.504 35.4902 53.5024 40.8042 64.6135C46.1182 75.7246 45.8365 51.5298 45.0313 38.0435" stroke="#F08A5D" stroke-width="5.5" stroke-linecap="round"/>
<path d="M76.8841 77.3309V82.657C76.8841 83.4057 77.0652 83.9613 77.4275 84.3236C77.798 84.6859 78.3092 84.8671 78.9614 84.8671C79.6054 84.8671 80.1087 84.6859 80.471 84.3236C80.8414 83.9613 81.0266 83.4057 81.0266 82.657V77.3309H82.1256V82.6449C82.1256 83.3454 81.9847 83.9371 81.7029 84.4202C81.4211 84.8952 81.0387 85.2496 80.5556 85.483C80.0806 85.7165 79.5451 85.8333 78.9493 85.8333C78.3535 85.8333 77.814 85.7165 77.3309 85.483C76.8559 85.2496 76.4774 84.8952 76.1957 84.4202C75.9219 83.9371 75.785 83.3454 75.785 82.6449V77.3309H76.8841ZM94.2005 85.7487H93.1015L88.6812 79.0458V85.7487H87.5821V77.3188H88.6812L93.1015 84.0096V77.3188H94.2005V85.7487ZM100.796 77.3309V85.7487H99.6972V77.3309H100.796ZM113.249 77.3309L110.073 85.7487H108.805L105.628 77.3309H106.8L109.445 84.5893L112.09 77.3309H113.249ZM119.176 78.2246V81.0386H122.244V81.9444H119.176V84.8429H122.606V85.7487H118.077V77.3188H122.606V78.2246H119.176ZM132.325 85.7487L130.32 82.3067H128.992V85.7487H127.893V77.3309H130.61C131.246 77.3309 131.781 77.4396 132.216 77.657C132.659 77.8743 132.989 78.1682 133.207 78.5386C133.424 78.909 133.533 79.3317 133.533 79.8067C133.533 80.3864 133.364 80.8977 133.025 81.3405C132.696 81.7834 132.196 82.0772 131.528 82.2222L133.641 85.7487H132.325ZM128.992 81.4251H130.61C131.205 81.4251 131.652 81.2801 131.95 80.9903C132.249 80.6923 132.397 80.2979 132.397 79.8067C132.397 79.3076 132.249 78.9211 131.95 78.6473C131.661 78.3735 131.214 78.2367 130.61 78.2367H128.992V81.4251ZM141.533 85.8333C140.977 85.8333 140.478 85.7367 140.035 85.5434C139.6 85.3421 139.258 85.0684 139.008 84.7222C138.758 84.3679 138.63 83.9613 138.622 83.5024H139.793C139.833 83.8969 139.995 84.231 140.277 84.5048C140.566 84.7705 140.986 84.9033 141.533 84.9033C142.056 84.9033 142.466 84.7745 142.764 84.5169C143.07 84.2512 143.223 83.913 143.223 83.5024C143.223 83.1803 143.135 82.9187 142.958 82.7173C142.78 82.516 142.559 82.3631 142.293 82.2584C142.028 82.1537 141.669 82.041 141.219 81.9202C140.663 81.7753 140.216 81.6304 139.878 81.4855C139.548 81.3405 139.262 81.115 139.021 80.8091C138.787 80.4951 138.67 80.0764 138.67 79.5531C138.67 79.0942 138.787 78.6875 139.021 78.3333C139.254 77.9791 139.58 77.7053 139.999 77.512C140.425 77.3188 140.913 77.2222 141.46 77.2222C142.249 77.2222 142.894 77.4194 143.393 77.814C143.9 78.2085 144.186 78.7318 144.25 79.384H143.042C143.002 79.0619 142.833 78.7801 142.535 78.5386C142.237 78.289 141.843 78.1642 141.351 78.1642C140.893 78.1642 140.518 78.285 140.228 78.5265C139.938 78.76 139.793 79.0902 139.793 79.5169C139.793 79.8228 139.878 80.0724 140.047 80.2656C140.225 80.4589 140.437 80.6078 140.687 80.7125C140.944 80.8091 141.303 80.9218 141.762 81.0507C142.318 81.2037 142.764 81.3566 143.103 81.5096C143.441 81.6545 143.731 81.884 143.972 82.198C144.214 82.5039 144.335 82.9227 144.335 83.4541C144.335 83.8647 144.226 84.2512 144.008 84.6135C143.791 84.9758 143.469 85.2696 143.042 85.4951C142.616 85.7206 142.112 85.8333 141.533 85.8333ZM150.674 78.2246V81.0386H153.742V81.9444H150.674V84.8429H154.104V85.7487H149.575V77.3188H154.104V78.2246H150.674ZM170.05 85.8333C169.268 85.8333 168.556 85.6521 167.912 85.2898C167.268 84.9194 166.756 84.4082 166.378 83.756C166.007 83.0957 165.822 82.355 165.822 81.5338C165.822 80.7125 166.007 79.9758 166.378 79.3236C166.756 78.6634 167.268 78.1521 167.912 77.7898C168.556 77.4194 169.268 77.2342 170.05 77.2342C170.838 77.2342 171.556 77.4194 172.199 77.7898C172.843 78.1521 173.35 78.6594 173.721 79.3115C174.092 79.9637 174.277 80.7044 174.277 81.5338C174.277 82.3631 174.092 83.1038 173.721 83.756C173.35 84.4082 172.843 84.9194 172.199 85.2898C171.556 85.6521 170.838 85.8333 170.05 85.8333ZM170.05 84.8792C170.638 84.8792 171.164 84.7423 171.632 84.4685C172.106 84.1948 172.477 83.8043 172.743 83.2971C173.017 82.7898 173.153 82.202 173.153 81.5338C173.153 80.8574 173.017 80.2696 172.743 79.7705C172.477 79.2632 172.111 78.8728 171.644 78.599C171.176 78.3252 170.645 78.1884 170.05 78.1884C169.454 78.1884 168.923 78.3252 168.455 78.599C167.988 78.8728 167.618 79.2632 167.344 79.7705C167.079 80.2696 166.946 80.8574 166.946 81.5338C166.946 82.202 167.079 82.7898 167.344 83.2971C167.618 83.8043 167.988 84.1948 168.455 84.4685C168.93 84.7423 169.461 84.8792 170.05 84.8792ZM184.109 77.3309V78.2246H180.449V81.0628H183.42V81.9565H180.449V85.7487H179.35V77.3309H184.109ZM198.572 85.8333C198.017 85.8333 197.517 85.7367 197.075 85.5434C196.64 85.3421 196.297 85.0684 196.048 84.7222C195.798 84.3679 195.669 83.9613 195.662 83.5024H196.833C196.873 83.8969 197.034 84.231 197.316 84.5048C197.606 84.7705 198.024 84.9033 198.572 84.9033C199.095 84.9033 199.506 84.7745 199.804 84.5169C200.11 84.2512 200.263 83.913 200.263 83.5024C200.263 83.1803 200.174 82.9187 199.998 82.7173C199.82 82.516 199.599 82.3631 199.333 82.2584C199.068 82.1537 198.709 82.041 198.258 81.9202C197.703 81.7753 197.256 81.6304 196.918 81.4855C196.587 81.3405 196.302 81.115 196.06 80.8091C195.826 80.4951 195.71 80.0764 195.71 79.5531C195.71 79.0942 195.826 78.6875 196.06 78.3333C196.293 77.9791 196.62 77.7053 197.039 77.512C197.465 77.3188 197.952 77.2222 198.5 77.2222C199.289 77.2222 199.932 77.4194 200.432 77.814C200.94 78.2085 201.225 78.7318 201.29 79.384H200.082C200.041 79.0619 199.872 78.7801 199.575 78.5386C199.277 78.289 198.882 78.1642 198.391 78.1642C197.932 78.1642 197.558 78.285 197.268 78.5265C196.978 78.76 196.833 79.0902 196.833 79.5169C196.833 79.8228 196.918 80.0724 197.087 80.2656C197.263 80.4589 197.477 80.6078 197.727 80.7125C197.984 80.8091 198.343 80.9218 198.802 81.0507C199.357 81.2037 199.804 81.3566 200.143 81.5096C200.481 81.6545 200.771 81.884 201.012 82.198C201.254 82.5039 201.374 82.9227 201.374 83.4541C201.374 83.8647 201.266 84.2512 201.048 84.6135C200.831 84.9758 200.508 85.2696 200.082 85.4951C199.655 85.7206 199.152 85.8333 198.572 85.8333ZM211.591 83.8768H207.919L207.243 85.7487H206.083L209.127 77.3792H210.395L213.426 85.7487H212.267L211.591 83.8768ZM211.277 82.983L209.755 78.7318L208.233 82.983H211.277ZM219.475 77.3309V85.7487H218.376V77.3309H219.475ZM231.589 85.7487H230.49L226.07 79.0458V85.7487H224.971V77.3188H226.07L230.49 84.0096V77.3188H231.589V85.7487ZM239.755 85.8333C239.199 85.8333 238.7 85.7367 238.257 85.5434C237.822 85.3421 237.481 85.0684 237.231 84.7222C236.981 84.3679 236.853 83.9613 236.844 83.5024H238.016C238.056 83.8969 238.217 84.231 238.499 84.5048C238.789 84.7705 239.208 84.9033 239.755 84.9033C240.278 84.9033 240.688 84.7745 240.987 84.5169C241.292 84.2512 241.446 83.913 241.446 83.5024C241.446 83.1803 241.357 82.9187 241.18 82.7173C241.002 82.516 240.781 82.3631 240.516 82.2584C240.25 82.1537 239.891 82.041 239.441 81.9202C238.885 81.7753 238.438 81.6304 238.1 81.4855C237.771 81.3405 237.484 81.115 237.243 80.8091C237.01 80.4951 236.893 80.0764 236.893 79.5531C236.893 79.0942 237.01 78.6875 237.243 78.3333C237.476 77.9791 237.802 77.7053 238.221 77.512C238.647 77.3188 239.135 77.2222 239.682 77.2222C240.471 77.2222 241.116 77.4194 241.615 77.814C242.122 78.2085 242.408 78.7318 242.472 79.384H241.264C241.225 79.0619 241.056 78.7801 240.757 78.5386C240.459 78.289 240.065 78.1642 239.574 78.1642C239.115 78.1642 238.74 78.285 238.45 78.5265C238.161 78.76 238.016 79.0902 238.016 79.5169C238.016 79.8228 238.1 80.0724 238.269 80.2656C238.447 80.4589 238.659 80.6078 238.909 80.7125C239.167 80.8091 239.525 80.9218 239.984 81.0507C240.54 81.2037 240.987 81.3566 241.325 81.5096C241.663 81.6545 241.953 81.884 242.194 82.198C242.436 82.5039 242.557 82.9227 242.557 83.4541C242.557 83.8647 242.448 84.2512 242.231 84.6135C242.013 84.9758 241.691 85.2696 241.264 85.4951C240.838 85.7206 240.335 85.8333 239.755 85.8333Z" fill="white"/>
<path d="M86.715 66.8478C83.6151 66.8478 80.8373 66.3445 78.3816 65.3381C75.926 64.3317 73.9532 62.8421 72.4638 60.8696C71.0145 58.897 70.2496 56.5217 70.1691 53.7439H81.1594C81.3204 55.314 81.8639 56.5217 82.7898 57.3671C83.7158 58.1723 84.9235 58.5749 86.413 58.5749C87.9429 58.5749 89.1506 58.2327 90.0362 57.5483C90.9219 56.8237 91.3647 55.8373 91.3647 54.5894C91.3647 53.5426 91.0024 52.6772 90.2778 51.9927C89.5933 51.3083 88.7279 50.7448 87.6811 50.3019C86.6747 49.859 85.2255 49.3559 83.3333 48.7923C80.5958 47.9468 78.3615 47.1014 76.6304 46.256C74.8994 45.4106 73.4098 44.1627 72.1618 42.5121C70.9139 40.8615 70.2898 38.7077 70.2898 36.0507C70.2898 32.1054 71.7189 29.0257 74.5773 26.8116C77.4356 24.5571 81.1594 23.4299 85.7488 23.4299C90.4187 23.4299 94.1827 24.5571 97.041 26.8116C99.8994 29.0257 101.429 32.1256 101.63 36.1111H90.4589C90.3784 34.7424 89.8752 33.6755 88.9493 32.9106C88.0233 32.1054 86.8357 31.7029 85.3865 31.7029C84.1385 31.7029 83.132 32.045 82.3671 32.7295C81.6023 33.3735 81.2198 34.3197 81.2198 35.5676C81.2198 36.9363 81.8639 38.0032 83.1522 38.7681C84.4404 39.533 86.4532 40.3583 89.1908 41.2439C91.9284 42.1699 94.1425 43.0555 95.8333 43.9009C97.5644 44.7464 99.054 45.9743 100.302 47.5845C101.55 49.1948 102.174 51.2681 102.174 53.8043C102.174 56.2198 101.55 58.4139 100.302 60.3865C99.0942 62.359 97.3228 63.9291 94.9879 65.0966C92.653 66.2641 89.8953 66.8478 86.715 66.8478ZM134.918 58.9372H119.096L116.56 66.4251H105.751L121.089 24.0338H133.046L148.384 66.4251H137.454L134.918 58.9372ZM132.261 50.9662L127.007 35.4468L121.814 50.9662H132.261ZM163.378 24.0338V66.4251H153.052V24.0338H163.378ZM208.784 66.4251H198.458L181.187 40.2778V66.4251H170.861V24.0338H181.187L198.458 50.3019V24.0338H208.784V66.4251ZM231.607 66.8478C228.507 66.8478 225.729 66.3445 223.274 65.3381C220.818 64.3317 218.845 62.8421 217.356 60.8696C215.907 58.897 215.141 56.5217 215.062 53.7439H226.052C226.213 55.314 226.756 56.5217 227.682 57.3671C228.607 58.1723 229.815 58.5749 231.306 58.5749C232.835 58.5749 234.042 58.2327 234.929 57.5483C235.814 56.8237 236.257 55.8373 236.257 54.5894C236.257 53.5426 235.895 52.6772 235.17 51.9927C234.485 51.3083 233.62 50.7448 232.574 50.3019C231.566 49.859 230.117 49.3559 228.226 48.7923C225.488 47.9468 223.254 47.1014 221.523 46.256C219.791 45.4106 218.302 44.1627 217.054 42.5121C215.806 40.8615 215.182 38.7077 215.182 36.0507C215.182 32.1054 216.611 29.0257 219.47 26.8116C222.327 24.5571 226.052 23.4299 230.641 23.4299C235.31 23.4299 239.075 24.5571 241.934 26.8116C244.791 29.0257 246.321 32.1256 246.523 36.1111H235.351C235.271 34.7424 234.767 33.6755 233.842 32.9106C232.915 32.1054 231.728 31.7029 230.279 31.7029C229.03 31.7029 228.024 32.045 227.26 32.7295C226.494 33.3735 226.112 34.3197 226.112 35.5676C226.112 36.9363 226.756 38.0032 228.045 38.7681C229.332 39.533 231.345 40.3583 234.083 41.2439C236.82 42.1699 239.035 43.0555 240.726 43.9009C242.457 44.7464 243.946 45.9743 245.194 47.5845C246.442 49.1948 247.066 51.2681 247.066 53.8043C247.066 56.2198 246.442 58.4139 245.194 60.3865C243.987 62.359 242.215 63.9291 239.88 65.0966C237.545 66.2641 234.787 66.8478 231.607 66.8478Z" fill="white"/>
<path d="M47.3806 32.0929L47.5722 31.6311C47.0527 31.4155 46.5071 31.1633 45.9479 30.8824L45.9478 30.8824C45.7092 30.7625 45.4684 30.6368 45.2254 30.5052L45.2252 30.5051C44.9819 30.3735 44.7379 30.2372 44.4937 30.0965L47.3806 32.0929ZM47.3806 32.0929L47.5722 31.6311C47.7157 31.6907 47.8568 31.7473 47.9957 31.8011L48.3548 31.3893C48.5249 31.1942 48.6761 30.9832 48.8065 30.7592L48.8093 30.7546L48.8093 30.7546L48.8135 30.7476L48.8162 30.743C48.8173 30.7413 48.8177 30.7406 48.8177 30.7405L48.8186 30.7389C49.1713 30.1251 49.3569 29.4295 49.357 28.7214V28.7211C49.3571 28.5743 49.3494 28.4277 49.3339 28.2816C49.1124 26.2446 47.3823 24.6545 45.2901 24.6545H45.2898C44.402 24.654 43.5385 24.9453 42.8323 25.4835L42.832 25.4837C42.4047 25.8089 42.0453 26.215 41.7742 26.6788C41.7698 26.6867 41.766 26.6932 41.7638 26.6969L41.7602 26.703C41.7599 26.7035 41.7596 26.7039 41.7595 26.7042C41.7595 26.7042 41.7595 26.7042 41.7595 26.7042C41.6311 26.9279 41.5245 27.1634 41.4409 27.4075L41.265 27.9211M47.3806 32.0929L41.265 27.9211M41.265 27.9211C41.3917 28.0223 41.5221 28.124 41.6551 28.2254C41.7891 28.327 41.926 28.4288 42.0656 28.5304C42.2044 28.6313 42.3448 28.7304 42.487 28.8277L42.4896 28.8294L42.4896 28.8294C43.1371 29.2781 43.8219 29.7095 44.4936 30.0965L41.265 27.9211ZM45.6451 32.7732C45.5274 32.7834 45.4092 32.7885 45.2907 32.7884H45.2901C43.6636 32.7884 42.2564 31.828 41.6067 30.4445C42.2318 30.8718 42.8988 31.2911 43.5801 31.6833C44.2736 32.0828 44.9685 32.4492 45.6451 32.7732Z" fill="#F08A5D" stroke="#F08A5D"/>
</svg>
