<svg width="50" height="50" viewBox="0 0 50 50" fill="none" xmlns="http://www.w3.org/2000/svg">
<circle cx="25" cy="25" r="25" fill="white"/>
<path d="M36.4991 18.7372C36.3625 18.2071 36.0946 17.7238 35.7223 17.3355C35.35 16.9472 34.8863 16.6675 34.3777 16.5246C32.5054 16 25 16 25 16C25 16 17.4946 16 15.6223 16.5218C15.1134 16.6643 14.6495 16.9438 14.2772 17.3321C13.9048 17.7205 13.6371 18.2041 13.5009 18.7344C13 20.6875 13 24.7612 13 24.7612C13 24.7612 13 28.8348 13.5009 30.7852C13.7768 31.8622 14.5911 32.7104 15.6223 32.9978C17.4946 33.5223 25 33.5223 25 33.5223C25 33.5223 32.5054 33.5223 34.3777 32.9978C35.4116 32.7104 36.2232 31.8622 36.4991 30.7852C37 28.8348 37 24.7612 37 24.7612C37 24.7612 37 20.6875 36.4991 18.7372ZM22.6161 28.5V21.0223L28.8304 24.7333L22.6161 28.5Z" fill="black"/>
</svg>
